<svg width="1920" height="1094" viewBox="0 0 1920 1094" fill="none" xmlns="http://www.w3.org/2000/svg">
<rect width="1920" height="1094" fill="#E8EAFE"/>
<g opacity="0.3">
<path d="M1718 0V1093.5" stroke="#0000FF" stroke-dasharray="15 15"/>
<path d="M1607 0V1093.5" stroke="#0000FF" stroke-dasharray="15 15"/>
<path d="M1496 0V1093.5" stroke="#0000FF" stroke-dasharray="15 15"/>
<path d="M1385 0V1093.5" stroke="#0000FF" stroke-dasharray="15 15"/>
<path d="M1274 0V1093.5" stroke="#0000FF" stroke-dasharray="15 15"/>
<path d="M1163 0V1093.5" stroke="#0000FF" stroke-dasharray="15 15"/>
<path d="M1052 0V1093.5" stroke="#0000FF" stroke-dasharray="15 15"/>
<path d="M941 0V1093.5" stroke="#0000FF" stroke-dasharray="15 15"/>
<path d="M830 0V1093.5" stroke="#0000FF" stroke-dasharray="15 15"/>
<path d="M719 0V1093.5" stroke="#0000FF" stroke-dasharray="15 15"/>
<path d="M608 0V1093.5" stroke="#0000FF" stroke-dasharray="15 15"/>
<path d="M497 0V1093.5" stroke="#0000FF" stroke-dasharray="15 15"/>
<path d="M386 0V1093.5" stroke="#0000FF" stroke-dasharray="15 15"/>
<path d="M275 0V1093.5" stroke="#0000FF" stroke-dasharray="15 15"/>
<path d="M164 0V1093.5" stroke="#0000FF" stroke-dasharray="15 15"/>
<path d="M53 0V1093.5" stroke="#0000FF" stroke-dasharray="15 15"/>
<path d="M1830 0V1093.5" stroke="#0000FF" stroke-dasharray="15 15"/>
<path d="M0 103.25L1920 103.25" stroke="#0000FF" stroke-dasharray="15 15"/>
<path d="M0 214.25L1920 214.25" stroke="#0000FF" stroke-dasharray="15 15"/>
<path d="M0 325.25L1920 325.25" stroke="#0000FF" stroke-dasharray="15 15"/>
<path d="M0 436.25L1920 436.25" stroke="#0000FF" stroke-dasharray="15 15"/>
<path d="M0 547.25L1920 547.25" stroke="#0000FF" stroke-dasharray="15 15"/>
<path d="M0 658.25L1920 658.25" stroke="#0000FF" stroke-dasharray="15 15"/>
<path d="M0 769.25L1920 769.25" stroke="#0000FF" stroke-dasharray="15 15"/>
<path d="M0 880.25L1920 880.25" stroke="#0000FF" stroke-dasharray="15 15"/>
<path d="M0 991.25L1920 991.25" stroke="#0000FF" stroke-dasharray="15 15"/>
</g>
</svg>
