<svg width="153" height="171" viewBox="0 0 153 171" fill="none" xmlns="http://www.w3.org/2000/svg">
<path d="M142.922 46.2117L73.367 8.09891C71.2329 6.92952 68.5548 7.71158 67.3854 9.8457L63.1507 17.574C61.9813 19.7081 62.7633 22.3862 64.8975 23.5556L134.452 61.6683C136.587 62.8377 139.265 62.0557 140.434 59.9216L144.669 52.1932C145.838 50.0591 145.056 47.3811 142.922 46.2117Z" fill="#E8EAFE"/>
<path d="M87.8702 146.68L18.3152 108.567C16.1811 107.398 13.5031 108.18 12.3337 110.314L8.09892 118.042C6.92953 120.176 7.71159 122.854 9.84571 124.024L79.4006 162.137C81.5348 163.306 84.2128 162.524 85.3822 160.39L89.6169 152.661C90.7863 150.527 90.0043 147.849 87.8702 146.68Z" fill="#E8EAFE"/>
<path d="M76.3838 85.1177L61.4634 64.758C59.48 62.0566 58.3079 58.8457 58.0845 55.5019C57.8611 52.158 58.5957 48.8198 60.2021 45.8786L70.6937 26.7316L128.656 58.4923L118.165 77.6392C116.55 80.576 114.132 82.9917 111.193 84.6029C108.255 86.2142 104.918 86.9542 101.573 86.7363L76.3838 85.1177Z" fill="#D2D6FF"/>
<path d="M76.3838 85.1177L51.1942 83.4992C47.8499 83.2812 44.5129 84.0213 41.5743 85.6326C38.6358 87.2438 36.2175 89.6595 34.603 92.5963L24.1115 111.743L82.0739 143.504L92.5655 124.357C94.1719 121.416 94.9065 118.077 94.6831 114.734C94.4597 111.39 93.2876 108.179 91.3042 105.478L76.3838 85.1177Z" fill="#D2D6FF"/>
<path d="M122.029 79.7566L130.403 64.4738L132.335 65.5325C134.385 66.6556 136.797 66.9185 139.04 66.2633C141.284 65.6082 143.175 64.0886 144.298 62.0389L148.533 54.3106C149.656 52.2609 149.919 49.849 149.264 47.6055C148.609 45.362 147.089 43.4706 145.039 42.3475L75.4844 4.23475C73.4347 3.11163 71.0228 2.84873 68.7793 3.5039C66.5358 4.15908 64.6444 5.67865 63.5213 7.72833L59.2865 15.4567C58.1634 17.5063 57.9005 19.9182 58.5557 22.1617C59.2109 24.4052 60.7304 26.2966 62.7801 27.4197L64.7122 28.4784L56.338 43.7612C54.3234 47.4459 53.3971 51.6271 53.6671 55.8179C53.937 60.0087 55.392 64.0366 57.8626 67.4324L67.2451 80.1102L51.5105 79.0249C47.3187 78.7701 43.1409 79.7114 39.4634 81.7393C35.786 83.7671 32.7604 86.798 30.7389 90.4789L22.3647 105.762L20.4326 104.703C18.3829 103.58 15.971 103.317 13.7275 103.972C11.484 104.627 9.59264 106.147 8.46951 108.197L4.23476 115.925C3.11163 117.975 2.84874 120.386 3.50391 122.63C4.15908 124.873 5.67865 126.765 7.72833 127.888L77.2833 166.001C79.3329 167.124 81.7448 167.387 83.9883 166.732C86.2319 166.076 88.1232 164.557 89.2463 162.507L93.4811 154.779C94.6042 152.729 94.8671 150.317 94.2119 148.074C93.5568 145.83 92.0372 143.939 89.9875 142.816L88.0554 141.757L96.4297 126.474C98.4442 122.79 99.3705 118.608 99.1006 114.418C98.8306 110.227 97.3756 106.199 94.905 102.803L85.5226 90.1253L101.257 91.2106C105.449 91.4654 109.627 90.5241 113.304 88.4962C116.982 86.4684 120.007 83.4375 122.029 79.7566ZM71.2496 11.9631L140.805 50.0758L136.57 57.8042L67.0149 19.6914L71.2496 11.9631ZM81.518 158.272L11.9631 120.16L16.1978 112.431L85.7528 150.544L81.518 158.272ZM88.7013 122.24L80.3271 137.522L30.093 109.996L38.4672 94.7137C39.6766 92.5116 41.4885 90.6998 43.6906 89.4905C45.8927 88.2812 48.3938 87.7245 50.9009 87.8855L74.0441 89.3876L87.765 108.085C89.25 110.112 90.1268 112.519 90.2926 115.026C90.4584 117.533 89.9064 120.035 88.7013 122.24ZM101.867 82.35L78.7235 80.8479L65.0026 62.1502C63.5176 60.1238 62.6409 57.7161 62.475 55.2093C62.3092 52.7025 62.8612 50.2003 64.0663 47.9959L72.4405 32.7132L122.675 60.2391L114.3 75.5218C113.091 77.7239 111.279 79.5357 109.077 80.745C106.875 81.9543 104.374 82.511 101.867 82.35Z" fill="#0000FF"/>
</svg>
