<svg width="179" height="106" viewBox="0 0 179 106" fill="none" xmlns="http://www.w3.org/2000/svg">
<path d="M27.82 44.88C26.66 44.44 24.98 44.28 22.78 44.4C19.5 44.6 17.58 44.68 17.02 44.64C11.82 44.28 7.32 44.1 3.52 44.1C3.16 44.1 2.86 43.98 2.62 43.74C2.38 43.5 2.26 43.2 2.26 42.84C2.26 42.56 2.34 42.32 2.5 42.12C2.34 41.88 2.26 41.62 2.26 41.34C2.26 40.66 2.18 38.68 2.02 35.4C1.82 32.12 1.8 29.58 1.96 27.78C1.72 26.38 1.56 25.32 1.48 24.6C1.36 23.84 1.3 22.82 1.3 21.54C1.26 20.26 1.38 19.16 1.66 18.24C1.74 17.92 1.94 17.68 2.26 17.52C2.54 17.32 2.86 17.28 3.22 17.4C3.3 16.92 3.58 16.58 4.06 16.38C4.42 16.26 5.1 16.18 6.1 16.14C6.9 16.1 7.92 16.1 9.16 16.14C11.52 16.22 14.24 16.38 17.32 16.62C20.44 16.9 23.1 17.2 25.3 17.52C26.46 17.68 27.4 17.86 28.12 18.06C28.52 18.14 28.86 18.22 29.14 18.3C29.54 18.46 29.84 18.64 30.04 18.84C30.68 19.52 31.06 20.5 31.18 21.78C31.26 22.58 31.36 26.08 31.48 32.28C31.56 34.92 31.62 37.1 31.66 38.82C31.66 39.74 31.66 40.46 31.66 40.98C31.66 41.26 31.66 41.48 31.66 41.64C31.66 41.72 31.66 41.8 31.66 41.88C31.66 42 31.64 42.14 31.6 42.3C31.36 42.94 31 43.4 30.52 43.68C30.36 43.76 30.18 43.8 29.98 43.8C29.9 43.84 29.78 43.86 29.62 43.86C29.58 43.86 29.54 43.86 29.5 43.86C29.46 43.94 29.44 44.02 29.44 44.1C29.32 44.42 29.1 44.66 28.78 44.82C28.46 44.98 28.14 45 27.82 44.88ZM23.32 28.92C23.04 29.88 22.86 30.94 22.78 32.1C22.74 33.26 22.76 34.7 22.84 36.42C22.96 38.1 23.02 39.3 23.02 40.02C23.02 40.54 22.8 40.92 22.36 41.16C23.88 41.2 25.2 41.24 26.32 41.28C27.36 41.32 28.18 41.34 28.78 41.34C28.94 41.34 29.06 41.34 29.14 41.34C29.14 41.3 29.14 41.24 29.14 41.16C29.14 41.08 29.14 41.02 29.14 40.98C29.14 40.5 29.14 39.78 29.14 38.82C29.1 37.1 29.04 34.94 28.96 32.34C28.84 26.18 28.74 22.74 28.66 22.02C28.62 21.46 28.5 21.02 28.3 20.7H28.24C28.08 20.62 27.86 20.56 27.58 20.52C26.9 20.36 26.02 20.2 24.94 20.04C22.78 19.72 20.16 19.42 17.08 19.14C14.04 18.9 11.36 18.74 9.04 18.66C7.88 18.62 6.92 18.62 6.16 18.66C6.08 18.66 6 18.66 5.92 18.66C5.92 23.94 5.94 27.92 5.98 30.6C6.02 33.64 6.08 36.04 6.16 37.8C6.24 38.8 6.32 39.58 6.4 40.14V40.26C6.44 40.26 6.48 40.26 6.52 40.26C7.28 40.3 8.8 40.4 11.08 40.56C11.04 40.32 11 40.06 10.96 39.78C10.84 38.9 10.76 37.76 10.72 36.36C10.64 33.56 10.7 31.54 10.9 30.3C10.98 29.98 11.16 29.72 11.44 29.52C11.72 29.32 12.02 29.26 12.34 29.34C12.7 29.38 12.98 29.54 13.18 29.82C13.38 30.1 13.46 30.42 13.42 30.78C13.22 31.82 13.16 33.66 13.24 36.3C13.28 37.58 13.36 38.62 13.48 39.42C13.52 39.82 13.58 40.12 13.66 40.32C13.66 40.36 13.66 40.4 13.66 40.44C13.78 40.52 13.86 40.6 13.9 40.68L18.82 40.98L21.1 41.1C20.7 40.86 20.5 40.5 20.5 40.02C20.5 39.58 20.44 38.46 20.32 36.66C20.24 34.82 20.24 33.22 20.32 31.86C20.4 30.5 20.6 29.28 20.92 28.2C21.04 27.84 21.24 27.58 21.52 27.42C21.84 27.26 22.16 27.24 22.48 27.36C22.84 27.48 23.1 27.7 23.26 28.02C23.42 28.3 23.44 28.6 23.32 28.92ZM29.14 41.58H29.2H29.14ZM5.98 40.26H5.92H5.98ZM38.2342 40.56C38.2342 39.64 38.1342 37.68 37.9342 34.68C37.7742 32.16 37.7542 30.14 37.8742 28.62C37.9942 27.22 38.2142 25.48 38.5342 23.4C39.0142 20.36 39.2742 18.7 39.3142 18.42C39.3542 18.14 39.3942 17.46 39.4342 16.38C39.4742 15.46 39.5942 14.68 39.7942 14.04C39.8742 13.68 40.0542 13.42 40.3342 13.26C40.6542 13.06 40.9742 13.02 41.2942 13.14C41.3342 13.14 41.3742 13.14 41.4142 13.14C41.4942 12.78 41.5942 12.42 41.7142 12.06C41.7942 11.74 41.9942 11.5 42.3142 11.34C42.6342 11.14 42.9542 11.1 43.2742 11.22C43.3942 11.26 43.4942 11.3 43.5742 11.34C43.7342 10.74 44.1342 10.44 44.7742 10.44C44.9342 10.44 45.4142 10.42 46.2142 10.38C47.0142 10.34 47.6742 10.32 48.1942 10.32C49.0742 10.28 49.7742 10.28 50.2942 10.32C50.6142 10.32 50.8942 10.34 51.1342 10.38C51.2942 10.42 51.4342 10.46 51.5542 10.5C51.8342 10.58 52.0542 10.72 52.2142 10.92L52.5142 11.7C52.5542 11.82 52.5742 11.94 52.5742 12.06C52.5742 12.26 52.5542 12.54 52.5142 12.9C52.5142 13.42 52.4742 14.12 52.3942 15C52.2742 16.08 52.1542 17.2 52.0342 18.36C51.9542 19.12 51.7142 23.3 51.3142 30.9C51.1142 34.34 50.9742 36.84 50.8942 38.4C50.8142 39.48 50.7542 40.32 50.7142 40.92C50.6742 41.24 50.6542 41.5 50.6542 41.7C50.6142 41.82 50.5942 41.92 50.5942 42C50.5542 42.2 50.4942 42.36 50.4142 42.48C50.2942 42.72 50.1342 42.9 49.9342 43.02C49.8542 43.06 49.7742 43.08 49.6942 43.08C49.6542 43.12 49.5942 43.14 49.5142 43.14C49.5142 43.42 49.3942 43.68 49.1542 43.92C48.9542 44.16 48.7142 44.3 48.4342 44.34C47.0742 44.5 45.3342 44.46 43.2142 44.22C40.7742 43.94 39.1742 43.8 38.4142 43.8C38.0542 43.8 37.7542 43.68 37.5142 43.44C37.2742 43.2 37.1542 42.9 37.1542 42.54C37.1542 42.18 37.2742 41.88 37.5142 41.64C37.7542 41.4 38.0542 41.28 38.4142 41.28C38.4542 41.28 38.4742 41.28 38.4742 41.28C38.3142 41.08 38.2342 40.84 38.2342 40.56ZM44.1142 12.78C43.5542 14.66 43.2742 17.62 43.2742 21.66C44.5942 21.54 46.5942 21.68 49.2742 22.08C49.3942 19.96 49.4742 18.64 49.5142 18.12C49.6342 16.96 49.7542 15.84 49.8742 14.76C49.9542 13.96 49.9942 13.32 49.9942 12.84C49.5942 12.84 49.0142 12.84 48.2542 12.84C47.7342 12.84 47.0542 12.86 46.2142 12.9C45.4142 12.94 44.9342 12.96 44.7742 12.96C44.5342 12.96 44.3142 12.9 44.1142 12.78ZM49.0942 24.6C46.3342 24.2 44.3942 24.06 43.2742 24.18C43.2342 24.66 43.2142 25.12 43.2142 25.56C43.0942 28.76 43.0342 31.16 43.0342 32.76C43.0342 32.92 43.0142 33.22 42.9742 33.66C42.9742 34.1 42.9542 34.68 42.9142 35.4C42.8742 36.08 42.8342 36.68 42.7942 37.2C42.7542 38.28 42.7342 39.12 42.7342 39.72C42.7342 40 42.7342 40.2 42.7342 40.32C42.8942 40.36 43.0542 40.38 43.2142 40.38C43.8542 40.46 44.6742 40.54 45.6742 40.62C46.5142 40.66 47.3542 40.68 48.1942 40.68C48.2742 40.08 48.3342 39.28 48.3742 38.28C48.4542 36.72 48.5942 34.22 48.7942 30.78L49.0942 24.6ZM71.4522 25.2C71.3722 26.2 71.2722 28.74 71.1522 32.82C71.1122 36.1 70.8922 38.74 70.4922 40.74C70.4522 40.82 70.4122 40.9 70.3722 40.98C71.5322 41.1 72.5722 41.18 73.4922 41.22C75.5322 41.38 77.1522 41.44 78.3522 41.4C79.0322 41.4 79.5722 41.36 79.9722 41.28C80.0122 41.28 80.0322 41.26 80.0322 41.22C80.0722 40.86 80.0922 40.3 80.0922 39.54C80.1322 38.3 80.1722 36.56 80.2122 34.32C80.2122 33.24 80.2122 32.02 80.2122 30.66C80.2522 29.3 80.2722 28.2 80.2722 27.36C80.2722 26.52 80.2722 26 80.2722 25.8C80.2722 25.68 80.3122 24.96 80.3922 23.64C80.5122 22.32 80.5722 21.2 80.5722 20.28C80.6122 19 80.6122 17.98 80.5722 17.22C80.5322 17.02 80.4922 16.82 80.4522 16.62H80.3922C80.0722 16.66 79.5722 16.72 78.8922 16.8C77.0922 17.04 76.0722 17.16 75.8322 17.16C75.7922 17.16 74.6122 17.14 72.2922 17.1C70.0122 17.06 68.0922 17.06 66.5322 17.1C64.3322 17.1 62.5922 17.16 61.3122 17.28C60.7122 17.32 60.2322 17.38 59.8722 17.46C59.7922 18.3 59.7122 19.44 59.6322 20.88C59.5122 23.36 59.4122 26.18 59.3322 29.34C59.2522 32.66 59.2122 35.44 59.2122 37.68C59.2122 38.88 59.2322 39.82 59.2722 40.5C59.2722 40.58 59.2722 40.64 59.2722 40.68C59.6722 40.68 60.2522 40.66 61.0122 40.62C61.2122 40.62 61.5522 40.6 62.0322 40.56C62.5522 40.52 62.9322 40.5 63.1722 40.5C63.9722 40.46 64.5122 40.44 64.7922 40.44C65.1922 40.44 66.2522 40.54 67.9722 40.74C67.9722 40.58 67.9722 40.42 67.9722 40.26C68.3722 38.38 68.5922 35.88 68.6322 32.76C68.7522 28.64 68.8522 26.04 68.9322 24.96C68.9722 24.6 69.1122 24.32 69.3522 24.12C69.6322 23.88 69.9522 23.78 70.3122 23.82C70.6722 23.86 70.9522 24.02 71.1522 24.3C71.3922 24.54 71.4922 24.84 71.4522 25.2ZM80.3322 45C77.9322 44.88 75.4122 44.8 72.7722 44.76C70.1322 44.76 67.1322 44.78 63.7722 44.82C60.4522 44.9 57.9522 44.94 56.2722 44.94C55.9122 44.94 55.6122 44.82 55.3722 44.58C55.1322 44.34 55.0122 44.04 55.0122 43.68C55.0122 43.08 55.2922 42.68 55.8522 42.48C55.6122 42.2 55.5322 41.88 55.6122 41.52C55.6522 41.16 55.6922 40.68 55.7322 40.08C55.7322 39.48 55.7122 38.72 55.6722 37.8C55.6322 36.88 55.6122 36.06 55.6122 35.34C55.5722 34.62 55.5322 33.6 55.4922 32.28C55.4122 30.96 55.3722 29.94 55.3722 29.22C55.2522 26.14 55.2122 23.8 55.2522 22.2C55.2922 21.08 55.3722 20.18 55.4922 19.5C55.6522 18.58 55.9122 17.92 56.2722 17.52C56.5522 17.24 56.8722 17.1 57.2322 17.1C57.0722 16.66 57.1522 16.26 57.4722 15.9V15.84C57.5522 15.48 57.7522 15.22 58.0722 15.06C58.3522 14.86 58.6522 14.78 58.9722 14.82C59.1322 14.86 59.2722 14.92 59.3922 15C59.8322 14.92 60.3922 14.84 61.0722 14.76C62.4322 14.64 64.2522 14.58 66.5322 14.58C68.0522 14.54 69.9722 14.54 72.2922 14.58C74.6122 14.62 75.7922 14.64 75.8322 14.64C75.9522 14.64 76.8522 14.54 78.5322 14.34C79.2522 14.22 79.8122 14.16 80.2122 14.16C80.4922 14.12 80.7322 14.1 80.9322 14.1C81.2922 14.1 81.5922 14.16 81.8322 14.28C82.2722 14.52 82.5922 14.96 82.7922 15.6C82.9122 15.96 82.9922 16.42 83.0322 16.98C83.1522 17.86 83.1722 19 83.0922 20.4C83.0922 21.28 83.0322 22.38 82.9122 23.7C82.8322 25.02 82.7922 25.76 82.7922 25.92C82.7922 26.08 82.7922 26.58 82.7922 27.42C82.7922 28.22 82.7722 29.3 82.7322 30.66C82.7322 32.02 82.7322 33.24 82.7322 34.32C82.6922 36.6 82.6522 38.36 82.6122 39.6C82.6122 40.4 82.5922 41 82.5522 41.4C82.5522 41.64 82.5522 41.84 82.5522 42C82.5122 42.08 82.4922 42.16 82.4922 42.24C82.4922 42.32 82.4722 42.38 82.4322 42.42C82.3922 42.58 82.3122 42.74 82.1922 42.9C82.0322 43.06 81.8322 43.22 81.5922 43.38C81.6322 43.5 81.6522 43.64 81.6522 43.8C81.6522 44.16 81.5122 44.44 81.2322 44.64C80.9922 44.88 80.6922 45 80.3322 45ZM111.878 45.54C110.118 46.34 107.258 46.46 103.298 45.9C102.618 45.78 101.138 45.52 98.8581 45.12C97.1781 44.84 95.9781 44.68 95.2581 44.64C94.5381 44.6 93.2181 44.6 91.2981 44.64C89.4981 44.68 88.0781 44.64 87.0381 44.52C86.7181 44.48 86.4581 44.32 86.2581 44.04C86.0181 43.76 85.9181 43.44 85.9581 43.08C86.0381 42.6 86.3181 42.26 86.7981 42.06C86.3181 40.74 86.1181 38.4 86.1981 35.04C86.2381 34.04 86.3781 31.64 86.6181 27.84C86.8581 24.32 86.7581 18.86 86.3181 11.46C86.3181 11.14 86.4381 10.86 86.6781 10.62C86.8781 10.34 87.1581 10.18 87.5181 10.14C87.7181 10.14 87.9181 10.18 88.1181 10.26C88.1181 10.18 88.1181 10.12 88.1181 10.08C88.1581 9.72 88.3181 9.44 88.5981 9.24C88.8781 9 89.1781 8.9 89.4981 8.94C89.6181 8.94 89.7181 8.96 89.7981 9C89.9981 8.84 90.2381 8.76 90.5181 8.76C91.6381 8.76 93.1981 8.88 95.1981 9.12C97.3181 9.32 98.8181 9.44 99.6981 9.48C100.378 9.52 102.358 9.5 105.638 9.42C108.158 9.42 110.198 9.5 111.758 9.66C112.798 9.78 113.598 10.14 114.158 10.74C114.318 10.94 114.438 11.24 114.518 11.64C114.558 11.8 114.598 12.04 114.638 12.36C114.638 12.8 114.658 13.44 114.698 14.28C114.698 15.64 114.678 17.5 114.638 19.86C114.598 21.02 114.558 22.32 114.518 23.76C114.478 25.2 114.438 26.38 114.398 27.3C114.398 28.22 114.398 28.82 114.398 29.1C114.398 29.3 114.398 29.76 114.398 30.48C114.438 31.2 114.458 32.12 114.458 33.24C114.498 34.36 114.518 35.38 114.518 36.3C114.558 38.14 114.578 39.58 114.578 40.62C114.538 41.26 114.518 41.76 114.518 42.12C114.478 42.32 114.458 42.5 114.458 42.66C114.418 42.78 114.378 42.88 114.338 42.96C114.258 43.24 114.098 43.46 113.858 43.62C113.538 43.86 113.098 44.02 112.538 44.1C112.698 44.78 112.478 45.26 111.878 45.54ZM102.518 12.12C102.318 12.44 102.158 13.2 102.038 14.4C101.918 15.48 101.878 16.92 101.918 18.72C101.958 19.8 102.018 21.3 102.098 23.22C102.218 25.14 102.278 26.36 102.278 26.88C102.278 27.24 102.158 27.54 101.918 27.78C101.678 28.02 101.378 28.14 101.018 28.14C100.658 28.14 100.358 28.02 100.118 27.78C99.8781 27.54 99.7581 27.24 99.7581 26.88C99.7581 26.36 99.6981 25.16 99.5781 23.28C99.4981 21.36 99.4381 19.86 99.3981 18.78C99.3581 16.9 99.3981 15.36 99.5181 14.16C99.5981 13.28 99.7181 12.56 99.8781 12C99.7981 12 99.6981 12 99.5781 12C98.6581 11.96 97.1181 11.82 94.9581 11.58C93.0781 11.38 91.6181 11.28 90.5781 11.28C90.5381 12.16 90.4781 13.66 90.3981 15.78C90.2781 18.9 90.1581 22.46 90.0381 26.46C89.8781 30.66 89.7781 34.14 89.7381 36.9C89.6981 38.38 89.6781 39.52 89.6781 40.32C89.6781 40.48 89.6781 40.6 89.6781 40.68C89.9181 40.72 90.2581 40.76 90.6981 40.8C91.8581 40.92 93.3981 41.04 95.3181 41.16C99.3181 41.44 101.938 41.58 103.178 41.58C103.498 41.58 104.278 41.62 105.518 41.7C106.758 41.74 107.718 41.76 108.398 41.76C109.558 41.8 110.498 41.8 111.218 41.76C111.498 41.72 111.758 41.68 111.998 41.64C112.038 41.4 112.058 41.04 112.058 40.56C112.058 39.56 112.038 38.14 111.998 36.3C111.998 35.42 111.978 34.42 111.938 33.3C111.938 32.18 111.918 31.26 111.878 30.54C111.878 29.78 111.878 29.3 111.878 29.1C111.878 28.82 111.878 28.22 111.878 27.3C111.918 26.34 111.958 25.14 111.998 23.7C112.038 22.26 112.078 20.96 112.118 19.8C112.158 17.48 112.178 15.66 112.178 14.34C112.138 13.54 112.118 12.94 112.118 12.54C112.118 12.5 112.098 12.44 112.058 12.36C112.138 12.48 112.198 12.5 112.238 12.42C112.198 12.46 112.138 12.44 112.058 12.36C112.058 12.24 112.058 12.14 112.058 12.06V12.18C112.058 12.26 112.058 12.32 112.058 12.36C111.938 12.28 111.758 12.22 111.518 12.18C110.038 12.02 108.078 11.94 105.638 11.94C105.358 11.98 104.858 12 104.138 12C103.458 12 102.938 12 102.578 12C102.578 12.04 102.558 12.08 102.518 12.12ZM138.242 27.66C137.722 27.62 137.022 27.6 136.142 27.6C136.182 29.48 136.182 31.98 136.142 35.1C136.142 37.1 136.122 38.72 136.082 39.96C136.042 40.68 136.002 41.24 135.962 41.64C135.922 41.88 135.902 42.08 135.902 42.24C135.862 42.36 135.842 42.46 135.842 42.54C135.762 42.74 135.642 42.92 135.482 43.08C135.362 43.24 135.202 43.38 135.002 43.5C135.002 43.58 135.002 43.66 135.002 43.74C135.002 44.1 134.882 44.4 134.642 44.64C134.402 44.88 134.102 45 133.742 45C132.622 45 130.962 44.96 128.762 44.88C126.602 44.8 124.962 44.76 123.842 44.76C123.482 44.76 123.182 44.64 122.942 44.4C122.702 44.16 122.582 43.86 122.582 43.5C122.582 43.42 122.582 43.34 122.582 43.26C122.582 43.18 122.582 43.1 122.582 43.02C122.582 33.74 122.542 28.14 122.462 26.22C121.142 25.9 120.162 25.52 119.522 25.08C118.682 24.48 118.182 23.68 118.022 22.68C117.942 22.24 117.962 21.4 118.082 20.16C118.202 18.92 118.222 17.84 118.142 16.92C118.102 16.6 118.202 16.32 118.442 16.08C118.682 15.8 118.982 15.64 119.342 15.6C119.422 15.6 119.522 15.6 119.642 15.6C119.602 15.28 119.682 14.98 119.882 14.7C120.082 14.42 120.342 14.24 120.662 14.16C120.942 14.12 121.202 14.16 121.442 14.28C122.162 14.2 122.782 14.08 123.302 13.92C123.302 13.84 123.302 13.76 123.302 13.68C123.302 12.12 123.282 10.92 123.242 10.08C123.242 9.72 123.342 9.42 123.542 9.18C123.782 8.94 124.082 8.8 124.442 8.76C124.482 7.8 124.882 7.02 125.642 6.42C126.002 6.14 126.482 5.96 127.082 5.88C127.442 5.84 127.882 5.84 128.402 5.88C128.682 5.88 129.082 5.9 129.602 5.94C130.002 5.98 130.262 6 130.382 6C130.502 6 130.722 5.98 131.042 5.94C131.562 5.9 131.942 5.88 132.182 5.88C132.662 5.84 133.062 5.82 133.382 5.82C133.902 5.86 134.322 5.98 134.642 6.18C135.082 6.38 135.382 6.76 135.542 7.32C135.662 7.64 135.722 8.02 135.722 8.46C135.762 8.94 135.742 9.72 135.662 10.8C135.582 11.92 135.522 12.64 135.482 12.96C135.482 13.2 135.502 13.42 135.542 13.62C135.662 13.7 135.842 13.78 136.082 13.86C136.282 13.9 136.822 14 137.702 14.16C139.622 14.48 140.882 15.18 141.482 16.26C141.802 16.94 141.782 17.88 141.422 19.08C141.382 19.32 141.302 19.56 141.182 19.8C141.102 20.04 141.042 20.22 141.002 20.34C140.962 20.46 140.942 20.58 140.942 20.7C140.942 20.78 140.922 20.98 140.882 21.3C140.882 21.74 140.882 22.06 140.882 22.26C140.842 23.3 140.602 24.06 140.162 24.54C139.882 24.9 139.502 25.16 139.022 25.32C139.462 25.6 139.662 26 139.622 26.52C139.582 26.84 139.422 27.12 139.142 27.36C138.902 27.6 138.602 27.7 138.242 27.66ZM125.102 42.24C125.182 42.24 125.282 42.24 125.402 42.24C125.282 42.12 125.182 41.98 125.102 41.82C125.102 41.94 125.102 42.08 125.102 42.24ZM127.142 8.4C126.982 8.56 126.922 8.86 126.962 9.3C126.962 9.54 127.022 9.9 127.142 10.38C127.302 10.98 127.402 11.44 127.442 11.76C127.602 13.12 127.262 14.22 126.422 15.06C125.622 15.86 124.282 16.4 122.402 16.68C122.642 18.4 122.682 19.9 122.522 21.18C122.482 21.34 122.362 21.72 122.162 22.32H122.102C122.102 22.36 122.402 22.4 123.002 22.44C123.642 22.52 124.122 22.6 124.442 22.68C125.202 22.96 125.722 23.44 126.002 24.12C126.362 24.92 126.722 27 127.082 30.36C127.362 32.96 127.542 35.06 127.622 36.66C127.662 37.1 127.622 37.86 127.502 38.94C127.422 39.7 127.402 40.24 127.442 40.56C127.802 40.64 128.322 40.7 129.002 40.74C129.242 40.74 129.722 40.74 130.442 40.74C131.042 40.74 131.462 40.76 131.702 40.8C131.862 40.84 132.142 40.9 132.542 40.98C132.902 41.06 133.162 41.12 133.322 41.16C133.362 41.16 133.402 41.16 133.442 41.16C133.482 40.84 133.522 40.4 133.562 39.84C133.602 38.64 133.622 37.04 133.622 35.04C133.702 30.76 133.702 28.06 133.622 26.94C133.622 26.9 133.562 26.72 133.442 26.4C133.282 25.84 133.262 25.34 133.382 24.9C133.542 24.06 134.062 23.48 134.942 23.16C135.382 23.04 135.962 22.98 136.682 22.98C137.482 22.98 137.922 22.96 138.002 22.92C138.122 22.92 138.202 22.92 138.242 22.92C138.322 22.72 138.362 22.46 138.362 22.14C138.362 21.98 138.362 21.68 138.362 21.24C138.402 20.88 138.422 20.58 138.422 20.34C138.462 20.22 138.662 19.54 139.022 18.3L139.202 17.46C139.042 17.1 138.402 16.82 137.282 16.62C136.322 16.46 135.722 16.36 135.482 16.32C134.642 16.08 134.002 15.72 133.562 15.24C133.162 14.76 132.962 14 132.962 12.96C133.002 12.56 133.062 11.78 133.142 10.62C133.222 9.66 133.242 8.98 133.202 8.58C133.202 8.5 133.202 8.42 133.202 8.34C132.962 8.34 132.662 8.36 132.302 8.4C132.142 8.4 131.802 8.42 131.282 8.46C130.842 8.5 130.522 8.52 130.322 8.52C130.162 8.52 129.862 8.5 129.422 8.46C128.902 8.42 128.522 8.4 128.282 8.4C127.882 8.36 127.562 8.36 127.322 8.4C127.242 8.4 127.182 8.4 127.142 8.4ZM166.572 44.52C165.372 44.48 163.852 44.52 162.012 44.64C159.492 44.84 157.892 44.96 157.212 45C156.012 45.04 154.432 45.02 152.472 44.94C150.232 44.86 148.712 44.82 147.912 44.82C147.552 44.82 147.232 44.68 146.952 44.4C146.592 44.32 146.272 44.18 145.992 43.98C145.792 43.78 145.652 43.52 145.572 43.2C145.532 43.08 145.492 42.92 145.452 42.72C145.412 42.44 145.392 42.08 145.392 41.64C145.352 40.92 145.332 39.94 145.332 38.7C145.332 38.06 145.352 37.4 145.392 36.72C145.392 36 145.392 35.4 145.392 34.92C145.392 34.44 145.392 34.16 145.392 34.08C145.392 33.92 145.412 33.76 145.452 33.6C145.252 33.4 145.132 33.14 145.092 32.82C145.092 32.66 145.052 32.12 144.972 31.2C144.892 30.28 144.832 29.64 144.792 29.28C144.752 28.88 144.712 28.24 144.672 27.36C144.632 26.48 144.632 25.78 144.672 25.26C144.672 24.7 144.712 24.08 144.792 23.4C144.872 22.68 144.972 22.04 145.092 21.48C144.972 20.08 144.852 18.8 144.732 17.64C144.692 17.28 144.792 16.98 145.032 16.74C145.272 16.46 145.552 16.3 145.872 16.26C146.192 16.22 146.492 16.3 146.772 16.5C146.772 16.14 146.792 15.86 146.832 15.66C146.912 15.18 147.192 14.86 147.672 14.7C147.672 14.38 147.772 14.1 147.972 13.86C148.172 13.62 148.432 13.48 148.752 13.44C151.992 13 155.592 12.62 159.552 12.3C162.232 12.1 164.392 12.02 166.032 12.06C166.992 12.06 167.792 12.12 168.432 12.24C169.312 12.4 169.932 12.7 170.292 13.14C170.452 13.3 170.572 13.56 170.652 13.92C170.732 14.08 170.792 14.3 170.832 14.58C170.912 15.06 170.972 15.68 171.012 16.44C171.092 17.72 171.152 19.4 171.192 21.48C171.232 23.48 171.252 25.98 171.252 28.98C171.652 29.14 171.912 29.42 172.032 29.82C172.112 30.14 172.072 30.46 171.912 30.78C171.792 31.06 171.592 31.26 171.312 31.38C171.352 33.34 171.372 34.88 171.372 36C171.372 37.6 171.332 38.86 171.252 39.78C171.212 40.38 171.172 40.86 171.132 41.22C171.052 41.46 170.992 41.66 170.952 41.82C170.792 42.18 170.592 42.44 170.352 42.6C170.192 42.72 170.012 42.8 169.812 42.84C169.772 42.84 169.712 42.84 169.632 42.84C169.552 42.88 169.432 42.9 169.272 42.9C169.032 42.9 168.732 42.88 168.372 42.84C168.212 42.84 168.032 42.84 167.832 42.84C167.872 43 167.892 43.16 167.892 43.32C167.892 43.68 167.752 43.96 167.472 44.16C167.232 44.4 166.932 44.52 166.572 44.52ZM159.252 19.26H163.992C164.352 19.26 164.652 19.38 164.892 19.62C165.132 19.86 165.252 20.16 165.252 20.52C165.252 20.88 165.132 21.18 164.892 21.42C164.652 21.66 164.352 21.78 163.992 21.78H159.252C158.892 21.78 158.592 21.66 158.352 21.42C158.112 21.18 157.992 20.88 157.992 20.52C157.992 20.16 158.112 19.86 158.352 19.62C158.592 19.38 158.892 19.26 159.252 19.26ZM149.352 16.14C149.072 17.74 148.952 22.08 148.992 29.16C149.032 30.8 149.072 32.32 149.112 33.72C149.112 34.16 149.112 34.58 149.112 34.98L149.172 35.4C149.252 36.72 149.332 37.96 149.412 39.12C149.452 39.36 149.492 39.6 149.532 39.84C149.532 40.04 149.552 40.22 149.592 40.38C149.872 40.42 150.232 40.44 150.672 40.44C151.632 40.48 152.932 40.48 154.572 40.44C155.732 40.4 157.132 40.34 158.772 40.26C160.452 40.14 161.312 40.08 161.352 40.08C161.592 40.08 162.172 40.1 163.092 40.14C163.412 40.14 163.912 40.16 164.592 40.2C165.312 40.24 165.732 40.26 165.852 40.26C167.012 40.3 167.872 40.32 168.432 40.32C168.552 40.32 168.632 40.34 168.672 40.38C168.712 40.14 168.752 39.88 168.792 39.6C168.832 38.76 168.852 37.58 168.852 36.06C168.852 34.94 168.832 33.52 168.792 31.8C167.632 31.92 166.132 31.98 164.292 31.98C163.332 31.98 162.052 31.96 160.452 31.92C158.892 31.88 157.852 31.86 157.332 31.86C156.972 31.86 156.672 31.74 156.432 31.5C156.192 31.26 156.072 30.96 156.072 30.6C156.072 30.24 156.192 29.94 156.432 29.7C156.672 29.46 156.972 29.34 157.332 29.34C157.852 29.34 158.892 29.36 160.452 29.4C162.052 29.44 163.332 29.46 164.292 29.46C166.132 29.46 167.612 29.4 168.732 29.28C168.732 26.08 168.712 23.5 168.672 21.54C168.632 19.5 168.572 17.86 168.492 16.62C168.452 15.94 168.392 15.4 168.312 15C168.312 14.92 168.312 14.86 168.312 14.82C168.232 14.78 168.132 14.74 168.012 14.7C167.492 14.62 166.812 14.58 165.972 14.58C164.412 14.54 162.352 14.62 159.792 14.82C156.112 15.1 152.632 15.46 149.352 15.9C149.352 15.98 149.352 16.06 149.352 16.14ZM19.06 105.5C17.38 105.66 14.92 105.72 11.68 105.68C8.44 105.64 6.06 105.7 4.54 105.86C4.22 105.9 3.92 105.82 3.64 105.62C3.28 105.66 2.96 105.58 2.68 105.38C2.4 105.18 2.24 104.9 2.2 104.54C1.92 104.3 1.78 103.98 1.78 103.58C1.78 102.54 1.72 101.12 1.6 99.32C1.48 97.56 1.34 95.38 1.18 92.78C0.98 90.22 0.82 88.1 0.7 86.42C0.46 82.46 0.38 79.24 0.46 76.76C0.5 73.56 0.82 71.26 1.42 69.86C1.54 69.54 1.76 69.32 2.08 69.2C2.4 69.04 2.72 69.02 3.04 69.14C3.04 68.54 3.04 68.18 3.04 68.06C3.08 67.74 3.24 67.48 3.52 67.28C3.8 67.04 4.12 66.94 4.48 66.98C5.16 67.06 5.52 67.44 5.56 68.12C7.36 67.88 9.92 67.66 13.24 67.46C15.32 67.34 17.04 67.28 18.4 67.28C19.16 67.28 19.76 67.3 20.2 67.34C20.48 67.38 20.72 67.44 20.92 67.52C21.4 67.64 21.74 67.9 21.94 68.3C22.14 68.66 22.22 69.14 22.18 69.74C22.14 70.1 22.06 70.52 21.94 71C21.9 71.24 21.84 71.52 21.76 71.84C21.72 72.12 21.68 72.34 21.64 72.5C21.6 72.62 21.58 72.72 21.58 72.8C21.3 76.92 21.38 81.48 21.82 86.48C21.82 86.6 21.86 87.14 21.94 88.1C22.02 89.02 22.06 89.58 22.06 89.78C22.1 89.94 22.16 90.46 22.24 91.34C22.32 92.18 22.38 92.72 22.42 92.96C22.46 93.24 22.52 93.76 22.6 94.52C22.68 95.28 22.74 95.84 22.78 96.2C22.86 96.56 22.94 97.06 23.02 97.7C23.14 98.38 23.24 98.92 23.32 99.32C23.44 99.76 23.56 100.24 23.68 100.76C23.84 101.32 23.98 101.84 24.1 102.32C24.22 102.68 24.3 102.98 24.34 103.22C24.38 103.46 24.42 103.68 24.46 103.88C24.46 104.28 24.36 104.64 24.16 104.96C23.76 105.6 23.1 105.82 22.18 105.62C21.94 105.54 21.76 105.48 21.64 105.44C21.6 105.44 21.56 105.44 21.52 105.44C21.08 105.44 20.4 105.42 19.48 105.38C19.32 105.46 19.18 105.5 19.06 105.5ZM12.4 76.4C12.4 79.8 12.38 82.14 12.34 83.42C12.34 83.74 12.2 84.02 11.92 84.26C11.68 84.5 11.38 84.62 11.02 84.62C10.7 84.62 10.42 84.5 10.18 84.26C9.94 83.98 9.82 83.66 9.82 83.3C9.86 82.1 9.88 79.8 9.88 76.4C9.88 76.04 10 75.74 10.24 75.5C10.48 75.26 10.78 75.14 11.14 75.14C11.5 75.14 11.8 75.26 12.04 75.5C12.28 75.74 12.4 76.04 12.4 76.4ZM2.98 79.88C2.98 78.64 2.98 77.44 2.98 76.28C2.98 76.48 2.98 76.66 2.98 76.82C2.94 77.78 2.94 78.8 2.98 79.88ZM19.6 69.86C19.28 69.82 18.86 69.8 18.34 69.8C17.06 69.8 15.4 69.86 13.36 69.98C9.68 70.18 7.06 70.42 5.5 70.7C5.5 71.54 5.5 72.56 5.5 73.76C5.5 77.04 5.48 80.9 5.44 85.34C5.44 86.62 5.44 87.88 5.44 89.12C9.36 89.12 12.2 89.5 13.96 90.26C14.28 90.38 14.5 90.6 14.62 90.92C14.78 91.24 14.78 91.56 14.62 91.88C14.5 92.2 14.28 92.42 13.96 92.54C13.64 92.7 13.32 92.7 13 92.54C11.56 91.94 9.04 91.64 5.44 91.64C5.44 93.64 5.44 95.38 5.44 96.86C5.44 98.5 5.46 99.78 5.5 100.7C5.5 100.98 5.5 101.22 5.5 101.42C7.26 101.42 9.9 101.48 13.42 101.6C16.98 101.72 19.62 101.78 21.34 101.78C20.58 98.86 19.9 93.84 19.3 86.72C18.86 81.6 18.78 76.92 19.06 72.68C19.06 72.56 19.2 71.84 19.48 70.52C19.56 70.24 19.6 70.02 19.6 69.86ZM43.2072 94.04C42.2472 94.48 40.9672 94.68 39.3672 94.64C39.0072 94.6 38.4072 94.56 37.5672 94.52C36.8472 94.48 36.3272 94.46 36.0072 94.46C35.9272 94.46 35.7072 94.48 35.3472 94.52C34.6672 94.6 34.2672 94.64 34.1472 94.64C33.6272 94.68 33.2272 94.7 32.9472 94.7C32.7072 94.7 32.5272 94.7 32.4072 94.7C32.0072 94.66 31.6872 94.54 31.4472 94.34C31.2872 94.18 31.1672 94 31.0872 93.8C31.0472 93.72 31.0072 93.64 30.9672 93.56C30.9672 93.48 30.9672 93.36 30.9672 93.2C30.9672 93.04 30.9472 92.8 30.9072 92.48C30.9072 92.28 30.9072 92.08 30.9072 91.88C30.6272 91.68 30.4472 91.42 30.3672 91.1C30.0072 89.38 30.0272 85.86 30.4272 80.54C30.7072 76.7 31.0672 73.14 31.5072 69.86C31.7072 68.42 31.6872 66.28 31.4472 63.44C31.2072 60.32 31.1472 58.04 31.2672 56.6C31.3072 56.24 31.4472 55.96 31.6872 55.76C31.9672 55.52 32.2872 55.42 32.6472 55.46C32.7272 55.46 32.8072 55.48 32.8872 55.52C32.9272 55.08 32.9472 54.68 32.9472 54.32C33.0672 53.08 33.3472 52.16 33.7872 51.56C34.0272 51.28 34.3072 51.12 34.6272 51.08C34.9872 51.04 35.3072 51.12 35.5872 51.32C35.8272 51.56 35.9672 51.84 36.0072 52.16C36.0872 52.48 36.0472 52.76 35.8872 53C37.0472 52.96 38.1672 52.94 39.2472 52.94C40.3672 52.9 41.3072 52.92 42.0672 53C43.0672 53.04 43.7672 53.16 44.1672 53.36C44.6072 53.52 44.9072 53.88 45.0672 54.44C45.1472 54.68 45.2272 55 45.3072 55.4C45.3872 56 45.4472 56.86 45.4872 57.98C45.5672 59.82 45.6072 62.36 45.6072 65.6C45.5672 67.72 45.5072 70.34 45.4272 73.46C45.3872 76.54 45.3672 78.24 45.3672 78.56C45.3672 78.72 45.3672 79.22 45.3672 80.06C45.4072 80.86 45.4272 81.8 45.4272 82.88C45.4272 83.96 45.4272 84.96 45.4272 85.88C45.3872 87.72 45.3472 89.18 45.3072 90.26C45.2272 90.9 45.1672 91.42 45.1272 91.82C45.0872 92.1 45.0272 92.32 44.9472 92.48C44.7872 92.88 44.5472 93.18 44.2272 93.38C44.0672 93.42 43.9072 93.46 43.7472 93.5C43.6272 93.74 43.4472 93.92 43.2072 94.04ZM32.6472 92.18H32.5872C32.6272 92.18 32.6472 92.18 32.6472 92.18ZM42.7872 55.58C42.5472 55.54 42.2472 55.52 41.8872 55.52C41.2072 55.44 40.3272 55.42 39.2472 55.46C37.9272 55.46 36.6472 55.5 35.4072 55.58C35.4072 56.14 35.4272 56.78 35.4672 57.5C35.5072 58.22 35.6072 59.28 35.7672 60.68C35.8872 61.96 35.9472 62.82 35.9472 63.26C35.9472 63.46 35.8072 68.44 35.5272 78.2C35.4072 82.04 35.3272 85 35.2872 87.08C35.2872 88.36 35.3072 89.38 35.3472 90.14C35.3472 90.38 35.3672 90.58 35.4072 90.74C35.4072 90.74 35.4272 90.74 35.4672 90.74C35.9472 90.78 36.6472 90.8 37.5672 90.8C38.0072 90.8 38.7672 90.8 39.8472 90.8C40.6872 90.8 41.2272 90.8 41.4672 90.8C41.5872 90.8 41.7872 90.84 42.0672 90.92C42.3872 90.96 42.5872 90.98 42.6672 90.98C42.7072 90.74 42.7472 90.44 42.7872 90.08C42.8272 89.04 42.8672 87.62 42.9072 85.82C42.9072 84.9 42.9072 83.9 42.9072 82.82C42.9072 81.74 42.8872 80.8 42.8472 80C42.8472 79.2 42.8472 78.72 42.8472 78.56C42.8472 78.24 42.8672 76.54 42.9072 73.46C42.9872 70.34 43.0472 67.7 43.0872 65.54C43.0872 62.38 43.0472 59.9 42.9672 58.1C42.9272 57.06 42.8672 56.28 42.7872 55.76C42.7872 55.68 42.7872 55.62 42.7872 55.58ZM70.6009 96.5C68.0009 96.94 64.6409 96.98 60.5209 96.62C55.0809 96.18 51.8609 95.96 50.8609 95.96C50.8609 95.96 50.8409 95.96 50.8009 95.96C50.7209 96 50.5809 96.04 50.3809 96.08C49.6209 96.24 49.0009 96.1 48.5209 95.66C48.0809 95.22 47.9209 94.62 48.0409 93.86C48.0809 93.62 48.1209 93.44 48.1609 93.32C48.1609 93.28 48.1609 93.24 48.1609 93.2C48.1609 90.52 48.1009 86.52 47.9809 81.2C47.8609 75.88 47.8009 71.9 47.8009 69.26C47.8009 68.9 47.9209 68.6 48.1609 68.36C48.4009 68.12 48.7009 68 49.0609 68C49.1809 68 49.3009 68.02 49.4209 68.06C49.5009 67.34 49.5809 66.62 49.6609 65.9C49.7009 65.58 49.8609 65.32 50.1409 65.12C50.4209 64.88 50.7409 64.78 51.1009 64.82C51.3409 64.86 51.5609 64.98 51.7609 65.18C52.5209 64.98 54.0209 64.84 56.2609 64.76C58.4209 64.68 60.7009 64.68 63.1009 64.76C65.7809 64.84 67.9609 65 69.6409 65.24C70.6409 65.4 71.4409 65.56 72.0409 65.72C72.4009 65.84 72.7009 65.98 72.9409 66.14C73.3409 66.38 73.6209 66.68 73.7809 67.04C73.9409 67.36 74.0209 67.84 74.0209 68.48C74.0609 69 74.0609 69.66 74.0209 70.46C73.9809 71.74 73.8809 73.44 73.7209 75.56C73.6809 76.6 73.6009 77.76 73.4809 79.04C73.3609 80.32 73.2609 81.4 73.1809 82.28C73.1009 83.12 73.0609 83.68 73.0609 83.96C73.0609 83.96 73.0609 84.1 73.0609 84.38C73.0609 84.46 73.0609 84.56 73.0609 84.68C73.0609 84.76 73.0609 84.88 73.0609 85.04C73.0609 85.2 73.0609 85.34 73.0609 85.46C73.1009 86.74 73.1209 87.8 73.1209 88.64C73.1209 90.04 73.1009 91.14 73.0609 91.94C73.0609 92.42 73.0409 92.8 73.0009 93.08C73.0009 93.28 73.0009 93.44 73.0009 93.56C72.9209 93.84 72.8009 94.08 72.6409 94.28C72.5209 94.44 72.3609 94.58 72.1609 94.7C72.0809 94.7 72.0009 94.7 71.9209 94.7C71.8409 94.74 71.8009 94.76 71.8009 94.76H71.6809H71.6209C71.5809 94.76 71.5609 94.76 71.5609 94.76C71.5609 94.76 71.5409 94.76 71.5009 94.76C71.5409 94.84 71.5809 94.92 71.6209 95C71.6609 95.36 71.5809 95.68 71.3809 95.96C71.1809 96.24 70.9209 96.42 70.6009 96.5ZM57.7009 83C58.4209 82.6 59.4609 82.36 60.8209 82.28C62.1809 82.2 63.0209 82.12 63.3409 82.04C63.7009 81.92 64.0209 81.96 64.3009 82.16C64.6209 82.32 64.8209 82.58 64.9009 82.94C65.0209 83.26 64.9809 83.58 64.7809 83.9C64.6209 84.18 64.3809 84.36 64.0609 84.44C63.5009 84.6 62.4809 84.72 61.0009 84.8C60.0009 84.84 59.3009 84.96 58.9009 85.16C58.5809 85.36 58.2609 85.42 57.9409 85.34C57.6209 85.22 57.3609 85 57.1609 84.68C57.0009 84.36 56.9609 84.04 57.0409 83.72C57.1609 83.4 57.3809 83.16 57.7009 83ZM71.5009 68.24C71.4209 68.2 71.3409 68.16 71.2609 68.12C70.8209 68 70.1809 67.88 69.3409 67.76C67.7009 67.52 65.6009 67.36 63.0409 67.28C60.6809 67.2 58.4409 67.2 56.3209 67.28C54.2809 67.32 52.9809 67.42 52.4209 67.58C52.2609 67.62 52.1209 67.64 52.0009 67.64C51.8409 69.28 51.7409 71.02 51.7009 72.86C52.2609 72.9 53.0609 72.98 54.1009 73.1C55.1809 73.22 55.8409 73.3 56.0809 73.34C57.9209 73.54 59.4609 73.64 60.7009 73.64C61.0609 73.64 61.3609 73.76 61.6009 74C61.8409 74.24 61.9609 74.54 61.9609 74.9C61.9609 75.26 61.8409 75.56 61.6009 75.8C61.3609 76.04 61.0609 76.16 60.7009 76.16C59.3809 76.16 57.7609 76.06 55.8409 75.86C55.5209 75.82 54.8609 75.74 53.8609 75.62C52.9009 75.5 52.1609 75.42 51.6409 75.38C51.6409 78.7 51.9209 84.04 52.4809 91.4C52.4809 91.52 52.4809 91.64 52.4809 91.76C52.5609 91.76 52.6609 91.76 52.7809 91.76C53.5809 91.8 54.6809 91.8 56.0809 91.76C56.7609 91.76 57.5209 91.76 58.3609 91.76C59.2409 91.72 59.9809 91.7 60.5809 91.7C61.1809 91.66 61.5609 91.64 61.7209 91.64C62.7209 91.64 64.7009 91.74 67.6609 91.94L70.5409 92.18C70.5409 92.06 70.5409 91.96 70.5409 91.88C70.5809 91.08 70.6009 90.02 70.6009 88.7C70.6009 87.82 70.5809 86.74 70.5409 85.46C70.5409 85.34 70.5409 85.16 70.5409 84.92C70.5409 84.68 70.5409 84.5 70.5409 84.38C70.5409 84.06 70.5409 83.88 70.5409 83.84C70.5409 83.56 70.5809 82.98 70.6609 82.1C70.7409 81.22 70.8409 80.14 70.9609 78.86C71.0809 77.58 71.1809 76.42 71.2609 75.38C71.3809 73.3 71.4609 71.62 71.5009 70.34C71.5409 69.62 71.5409 69.04 71.5009 68.6C71.5009 68.44 71.5009 68.32 71.5009 68.24ZM102.376 96.5C97.3361 96.14 89.1161 95.96 77.7161 95.96C77.3561 95.96 77.0561 95.84 76.8161 95.6C76.5761 95.36 76.4561 95.06 76.4561 94.7C76.4561 94.26 76.6361 93.92 76.9961 93.68C76.9161 93.48 76.8761 93.28 76.8761 93.08C76.8761 90.96 76.7561 87.18 76.5161 81.74C76.2761 76.9 76.1961 73.04 76.2761 70.16C76.2761 69.92 76.2561 68.58 76.2161 66.14C76.1761 63.66 76.2361 62.22 76.3961 61.82C76.4361 61.46 76.5961 61.18 76.8761 60.98C77.1561 60.78 77.4761 60.7 77.8361 60.74C78.2761 60.82 78.5961 61.06 78.7961 61.46C78.8761 60.7 78.9561 60.18 79.0361 59.9C79.1161 59.54 79.3161 59.28 79.6361 59.12C79.9161 58.96 80.2161 58.92 80.5361 59C80.5761 59 80.6161 59 80.6561 59C80.8561 58.56 81.2161 58.34 81.7361 58.34C81.9761 58.34 82.8561 58.34 84.3761 58.34C85.8961 58.3 87.3761 58.28 88.8161 58.28C90.2561 58.24 92.0161 58.22 94.0961 58.22C97.1761 58.26 99.6361 58.36 101.476 58.52C102.596 58.64 103.496 58.78 104.176 58.94C104.576 59.02 104.916 59.12 105.196 59.24C105.636 59.4 105.956 59.64 106.156 59.96C106.396 60.28 106.496 60.66 106.456 61.1C106.456 61.18 106.436 61.28 106.396 61.4C106.396 61.48 106.396 61.52 106.396 61.52C106.316 62.16 106.176 62.84 105.976 63.56C105.816 64.28 105.596 65.1 105.316 66.02C105.076 66.9 104.896 67.5 104.776 67.82C104.696 68.14 104.616 68.46 104.536 68.78C104.496 69.1 104.456 69.46 104.416 69.86C104.416 70.26 104.396 70.62 104.356 70.94C104.316 71.22 104.296 71.6 104.296 72.08C104.336 72.56 104.336 72.92 104.296 73.16C104.296 73.4 104.316 73.8 104.356 74.36C104.396 74.88 104.416 75.24 104.416 75.44C104.416 75.6 104.436 75.98 104.476 76.58C104.516 77.18 104.536 77.54 104.536 77.66C104.536 77.86 104.576 78.48 104.656 79.52C104.736 80.56 104.796 81.72 104.836 83C104.916 84.24 104.976 85.4 105.016 86.48C105.136 88.6 105.176 90.26 105.136 91.46C105.136 92.22 105.116 92.8 105.076 93.2C105.036 93.52 104.976 93.76 104.896 93.92C104.736 94.44 104.436 94.78 103.996 94.94C103.916 94.98 103.816 95 103.696 95C103.696 95.12 103.696 95.22 103.696 95.3C103.656 95.66 103.496 95.96 103.216 96.2C102.976 96.44 102.696 96.54 102.376 96.5ZM103.876 61.46C103.796 61.42 103.716 61.4 103.636 61.4C103.076 61.28 102.296 61.16 101.296 61.04C99.4961 60.88 97.0761 60.78 94.0361 60.74C91.9961 60.74 90.2361 60.76 88.7561 60.8C87.3161 60.8 85.8361 60.82 84.3161 60.86C82.8361 60.86 81.9761 60.86 81.7361 60.86C81.6161 60.86 81.4961 60.84 81.3761 60.8C81.2561 61.72 81.1561 63.58 81.0761 66.38C80.9561 69.62 80.8761 73.24 80.8361 77.24C80.8361 78.6 80.8361 79.88 80.8361 81.08C81.9161 81 83.2761 80.82 84.9161 80.54C87.8761 79.98 89.4761 79.68 89.7161 79.64C90.0361 79.6 90.3361 79.68 90.6161 79.88C90.8961 80.08 91.0561 80.36 91.0961 80.72C91.1761 81.04 91.1161 81.34 90.9161 81.62C90.7161 81.9 90.4361 82.08 90.0761 82.16C89.8761 82.2 88.3161 82.48 85.3961 83C83.5961 83.32 82.0961 83.54 80.8961 83.66C80.8961 85.22 80.9161 86.6 80.9561 87.8C81.0361 89.28 81.1161 90.46 81.1961 91.34C81.1961 91.62 81.2161 91.84 81.2561 92C82.9361 92.2 86.7761 92.4 92.7761 92.6C95.5761 92.68 97.8961 92.72 99.7361 92.72C100.776 92.68 101.596 92.66 102.196 92.66C102.316 92.62 102.436 92.6 102.556 92.6C102.596 92.28 102.616 91.9 102.616 91.46C102.656 90.3 102.616 88.68 102.496 86.6C102.456 85.52 102.396 84.36 102.316 83.12C102.276 81.84 102.216 80.68 102.136 79.64C102.056 78.6 102.016 77.98 102.016 77.78C101.816 74.26 101.776 71.8 101.896 70.4C100.816 70.32 97.3961 70.28 91.6361 70.28C91.2761 70.28 90.9761 70.16 90.7361 69.92C90.4961 69.68 90.3761 69.38 90.3761 69.02C90.3761 68.66 90.4961 68.36 90.7361 68.12C90.9761 67.88 91.2761 67.76 91.6361 67.76C97.4761 67.76 100.996 67.8 102.196 67.88C102.236 67.64 102.296 67.42 102.376 67.22C102.496 66.74 102.656 66.1 102.856 65.3C103.096 64.5 103.296 63.8 103.456 63.2C103.616 62.56 103.756 61.98 103.876 61.46ZM80.8961 92V91.94V92ZM134.778 96.5C129.738 96.14 121.518 95.96 110.118 95.96C109.758 95.96 109.458 95.84 109.218 95.6C108.978 95.36 108.858 95.06 108.858 94.7C108.858 94.26 109.038 93.92 109.398 93.68C109.318 93.48 109.278 93.28 109.278 93.08C109.278 90.96 109.158 87.18 108.918 81.74C108.678 76.9 108.598 73.04 108.678 70.16C108.678 69.92 108.658 68.58 108.618 66.14C108.578 63.66 108.638 62.22 108.798 61.82C108.838 61.46 108.998 61.18 109.278 60.98C109.558 60.78 109.878 60.7 110.238 60.74C110.678 60.82 110.998 61.06 111.198 61.46C111.278 60.7 111.358 60.18 111.438 59.9C111.518 59.54 111.718 59.28 112.038 59.12C112.318 58.96 112.618 58.92 112.938 59C112.978 59 113.018 59 113.058 59C113.258 58.56 113.618 58.34 114.138 58.34C114.378 58.34 115.258 58.34 116.778 58.34C118.298 58.3 119.778 58.28 121.218 58.28C122.658 58.24 124.418 58.22 126.498 58.22C129.578 58.26 132.038 58.36 133.878 58.52C134.998 58.64 135.898 58.78 136.578 58.94C136.978 59.02 137.318 59.12 137.598 59.24C138.038 59.4 138.358 59.64 138.558 59.96C138.798 60.28 138.898 60.66 138.858 61.1C138.858 61.18 138.838 61.28 138.798 61.4C138.798 61.48 138.798 61.52 138.798 61.52C138.718 62.16 138.578 62.84 138.378 63.56C138.218 64.28 137.998 65.1 137.718 66.02C137.478 66.9 137.298 67.5 137.178 67.82C137.098 68.14 137.018 68.46 136.938 68.78C136.898 69.1 136.858 69.46 136.818 69.86C136.818 70.26 136.798 70.62 136.758 70.94C136.718 71.22 136.698 71.6 136.698 72.08C136.738 72.56 136.738 72.92 136.698 73.16C136.698 73.4 136.718 73.8 136.758 74.36C136.798 74.88 136.818 75.24 136.818 75.44C136.818 75.6 136.838 75.98 136.878 76.58C136.918 77.18 136.938 77.54 136.938 77.66C136.938 77.86 136.978 78.48 137.058 79.52C137.138 80.56 137.198 81.72 137.238 83C137.318 84.24 137.378 85.4 137.418 86.48C137.538 88.6 137.578 90.26 137.538 91.46C137.538 92.22 137.518 92.8 137.478 93.2C137.438 93.52 137.378 93.76 137.298 93.92C137.138 94.44 136.838 94.78 136.398 94.94C136.318 94.98 136.218 95 136.098 95C136.098 95.12 136.098 95.22 136.098 95.3C136.058 95.66 135.898 95.96 135.618 96.2C135.378 96.44 135.098 96.54 134.778 96.5ZM136.278 61.46C136.198 61.42 136.118 61.4 136.038 61.4C135.478 61.28 134.698 61.16 133.698 61.04C131.898 60.88 129.478 60.78 126.438 60.74C124.398 60.74 122.638 60.76 121.158 60.8C119.718 60.8 118.238 60.82 116.718 60.86C115.238 60.86 114.378 60.86 114.138 60.86C114.018 60.86 113.898 60.84 113.778 60.8C113.658 61.72 113.558 63.58 113.478 66.38C113.358 69.62 113.278 73.24 113.238 77.24C113.238 78.6 113.238 79.88 113.238 81.08C114.318 81 115.678 80.82 117.318 80.54C120.278 79.98 121.878 79.68 122.118 79.64C122.438 79.6 122.738 79.68 123.018 79.88C123.298 80.08 123.458 80.36 123.498 80.72C123.578 81.04 123.518 81.34 123.318 81.62C123.118 81.9 122.838 82.08 122.478 82.16C122.278 82.2 120.718 82.48 117.798 83C115.998 83.32 114.498 83.54 113.298 83.66C113.298 85.22 113.318 86.6 113.358 87.8C113.438 89.28 113.518 90.46 113.598 91.34C113.598 91.62 113.618 91.84 113.658 92C115.338 92.2 119.178 92.4 125.178 92.6C127.978 92.68 130.298 92.72 132.138 92.72C133.178 92.68 133.998 92.66 134.598 92.66C134.718 92.62 134.838 92.6 134.958 92.6C134.998 92.28 135.018 91.9 135.018 91.46C135.058 90.3 135.018 88.68 134.898 86.6C134.858 85.52 134.798 84.36 134.718 83.12C134.678 81.84 134.618 80.68 134.538 79.64C134.458 78.6 134.418 77.98 134.418 77.78C134.218 74.26 134.178 71.8 134.298 70.4C133.218 70.32 129.798 70.28 124.038 70.28C123.678 70.28 123.378 70.16 123.138 69.92C122.898 69.68 122.778 69.38 122.778 69.02C122.778 68.66 122.898 68.36 123.138 68.12C123.378 67.88 123.678 67.76 124.038 67.76C129.878 67.76 133.398 67.8 134.598 67.88C134.638 67.64 134.698 67.42 134.778 67.22C134.898 66.74 135.058 66.1 135.258 65.3C135.498 64.5 135.698 63.8 135.858 63.2C136.018 62.56 136.158 61.98 136.278 61.46ZM113.298 92V91.94V92Z" fill="#0000FF"/>
<path d="M173.045 54L146.455 54C145.639 54 144.977 54.6614 144.977 55.4773V58.4318C144.977 59.2477 145.639 59.9091 146.455 59.9091L173.045 59.9091C173.861 59.9091 174.523 59.2477 174.523 58.4318V55.4773C174.523 54.6614 173.861 54 173.045 54Z" fill="#E8EAFE"/>
<path d="M173.045 92.4091H146.455C145.639 92.4091 144.977 93.0705 144.977 93.8864V96.8409C144.977 97.6568 145.639 98.3182 146.455 98.3182H173.045C173.861 98.3182 174.523 97.6568 174.523 96.8409V93.8864C174.523 93.0705 173.861 92.4091 173.045 92.4091Z" fill="#E8EAFE"/>
<path d="M159.75 76.1591L152.083 72.5767C151.065 72.102 150.203 71.3468 149.598 70.3996C148.994 69.4525 148.672 68.3526 148.67 67.229V59.9091L170.83 59.9091V67.229C170.828 68.3526 170.506 69.4525 169.902 70.3996C169.297 71.3468 168.435 72.102 167.417 72.5767L159.75 76.1591Z" fill="#E8EAFE"/>
<path d="M159.75 76.1591L152.083 79.7414C151.065 80.2162 150.203 80.9714 149.598 81.9185C148.994 82.8657 148.672 83.9656 148.67 85.0892V92.4091H170.83V85.0892C170.828 83.9656 170.506 82.8657 169.902 81.9185C169.297 80.9714 168.435 80.2162 167.417 79.7414L159.75 76.1591Z" fill="#E8EAFE"/>
<path d="M173.762 66.3085L172.807 60.8863L173.5 60.5227C174.284 60.5227 174.446 60.5768 175 60.0227C175.554 59.4686 175.635 58.8063 175.635 58.0227C175.635 57.2391 176.135 57.0227 175 56.5227C173.865 56.0227 174.5 56.5227 173 56.0227C172 55.5227 168.284 56.0228 167.5 56.0228L148 55.5227C147.216 55.5227 146.554 54.9687 146 55.5227C145.446 56.0768 145 56.7392 145 57.5227V57.9318C145 58.7154 144.857 59.9687 145.411 60.5227C145.965 61.0768 146.171 60.8863 146.955 60.8863H147.693L148 65.8085C148.001 67.2165 148.641 68.5951 149.395 69.7837C150.15 70.9724 151.226 71.9223 152.5 72.5227L156.756 75.6591L150.059 78.2837C148.786 78.8842 147.709 79.834 146.955 81.0227C146.2 82.2114 145.799 83.59 145.797 84.998L147.693 90.4318H146.955C146.171 90.4318 145.419 90.7431 144.865 91.2972C144.311 91.8513 144 92.6028 144 93.3863V95.0227C144 95.8063 144.946 96.4686 145.5 97.0227C146.054 97.5768 151.216 97.0227 152 97.0227H169.284C170.067 97.0227 174.446 97.0768 175 96.5227C175.554 95.9686 176.5 95.3063 176.5 94.5227L176.5 93.3863C176.5 92.6028 176.054 92.1677 175.5 91.6136C174.946 91.0595 174.329 91.0227 173.545 91.0227C172.762 91.0227 172 91.0227 172 91.0227L173.545 84.0227C173.544 82.6148 173.143 81.2362 172.388 80.0475C171.634 78.8588 170.557 77.9089 169.284 77.3085L163.744 75.6591L169.5 73.0227C170.774 72.4223 171.85 71.4724 172.605 70.2837C173.359 69.0951 173.761 67.7165 173.762 66.3085ZM170.591 84.0227L169 91.0227L150.648 90.4318L148.752 84.998C148.753 84.1557 148.994 83.331 149.446 82.6207C149.899 81.9104 150.545 81.3437 151.308 80.9872L160.25 77.2915L168.035 80.0119C168.798 80.3685 169.444 80.9351 169.897 81.6455C170.349 82.3558 170.59 83.1804 170.591 84.0227ZM168.252 70.3193L160.25 74.0267L153.748 69.8193C152.985 69.4627 152.34 68.8961 151.887 68.1857C151.434 67.4754 150.848 66.6508 150.847 65.8085L150.648 60.8863L169.852 60.8863L170.807 66.3085C170.807 67.1508 170.566 67.9754 170.113 68.6857C169.66 69.3961 169.015 69.9627 168.252 70.3193Z" fill="#0000FF"/>
</svg>
