<svg width="475" height="302" viewBox="0 0 475 302" fill="none" xmlns="http://www.w3.org/2000/svg">
<path d="M465.327 157H390.873C388.588 157 386.736 158.852 386.736 161.136V169.409C386.736 171.694 388.588 173.545 390.873 173.545H465.327C467.612 173.545 469.464 171.694 469.464 169.409V161.136C469.464 158.852 467.612 157 465.327 157Z" fill="#E8EAFE"/>
<path d="M465.327 264.545H390.873C388.588 264.545 386.736 266.397 386.736 268.682V276.955C386.736 279.239 388.588 281.091 390.873 281.091H465.327C467.612 281.091 469.464 279.239 469.464 276.955V268.682C469.464 266.397 467.612 264.545 465.327 264.545Z" fill="#E8EAFE"/>
<path d="M428.1 219.045L406.632 209.015C403.781 207.686 401.367 205.571 399.675 202.919C397.983 200.267 397.082 197.187 397.077 194.041V173.545H459.123V194.041C459.118 197.187 458.217 200.267 456.525 202.919C454.833 205.571 452.419 207.686 449.568 209.015L428.1 219.045Z" fill="#E8EAFE"/>
<path d="M428.1 219.045L406.632 229.076C403.781 230.405 401.367 232.52 399.675 235.172C397.983 237.824 397.082 240.904 397.077 244.05V264.545H459.123V244.05C459.118 240.904 458.217 237.824 456.525 235.172C454.833 232.52 452.419 230.405 449.568 229.076L428.1 219.045Z" fill="#E8EAFE"/>
<path d="M467.333 191.464L464.659 176.282L466.6 175.264C468.794 175.264 469.249 175.415 470.8 173.864C472.351 172.312 472.577 170.458 472.577 168.264C472.577 166.07 473.977 165.464 470.8 164.064C467.623 162.664 469.4 164.064 465.2 162.664C462.4 161.264 451.994 162.664 449.8 162.664L395.2 161.264C393.006 161.264 391.151 159.712 389.6 161.264C388.049 162.815 386.8 164.67 386.8 166.864V168.009C386.8 170.203 386.399 173.712 387.95 175.264C389.502 176.815 390.079 176.282 392.273 176.282H394.341L395.2 190.064C395.204 194.006 396.994 197.866 399.107 201.194C401.219 204.523 404.234 207.182 407.8 208.864L419.717 217.645L400.966 224.994C397.4 226.676 394.385 229.335 392.273 232.664C390.16 235.992 389.036 239.852 389.033 243.794L394.341 259.009H392.273C390.079 259.009 387.974 259.881 386.423 261.432C384.872 262.984 384 265.088 384 267.282V271.864C384 274.058 386.649 275.912 388.2 277.464C389.751 279.015 404.206 277.464 406.4 277.464H454.794C456.988 277.464 469.249 277.615 470.8 276.064C472.351 274.512 475 272.658 475 270.464L475 267.282C475 265.088 473.751 263.87 472.2 262.318C470.649 260.767 468.921 260.664 466.727 260.664C464.533 260.664 462.4 260.664 462.4 260.664L466.727 241.064C466.724 237.121 465.6 233.261 463.487 229.933C461.375 226.605 458.36 223.945 454.794 222.264L439.282 217.645L455.4 210.264C458.966 208.582 461.981 205.923 464.093 202.594C466.206 199.266 467.33 195.406 467.333 191.464ZM458.455 241.064L454 260.664L402.614 259.009L397.305 243.794C397.308 241.436 397.982 239.127 399.249 237.138C400.517 235.149 402.325 233.562 404.461 232.564L429.5 222.216L451.299 229.833C453.435 230.832 455.243 232.418 456.511 234.407C457.778 236.396 458.452 238.705 458.455 241.064ZM451.905 202.694L429.5 213.075L411.295 201.294C409.159 200.296 407.351 198.709 406.083 196.72C404.816 194.731 403.174 192.422 403.171 190.064L402.614 176.282H456.386L459.061 191.464C459.058 193.822 458.384 196.131 457.117 198.12C455.849 200.109 454.041 201.696 451.905 202.694Z" fill="#0000FF"/>
<path d="M50.16 300C45.68 300.427 39.12 300.587 30.48 300.48C21.84 300.373 15.4933 300.533 11.44 300.96C10.5867 301.067 9.78667 300.853 9.04 300.32C8.08 300.427 7.22667 300.213 6.48 299.68C5.73333 299.147 5.30667 298.4 5.2 297.44C4.45333 296.8 4.08 295.947 4.08 294.88C4.08 292.107 3.92 288.32 3.6 283.52C3.28 278.827 2.90667 273.013 2.48 266.08C1.94667 259.253 1.52 253.6 1.2 249.12C0.559999 238.56 0.346666 229.973 0.559999 223.36C0.666666 214.827 1.52 208.693 3.12 204.96C3.44 204.107 4.02667 203.52 4.88 203.2C5.73333 202.773 6.58667 202.72 7.44 203.04C7.44 201.44 7.44 200.48 7.44 200.16C7.54667 199.307 7.97333 198.613 8.72 198.08C9.46667 197.44 10.32 197.173 11.28 197.28C13.0933 197.493 14.0533 198.507 14.16 200.32C18.96 199.68 25.7867 199.093 34.64 198.56C40.1867 198.24 44.7733 198.08 48.4 198.08C50.4267 198.08 52.0267 198.133 53.2 198.24C53.9467 198.347 54.5867 198.507 55.12 198.72C56.4 199.04 57.3067 199.733 57.84 200.8C58.3733 201.76 58.5867 203.04 58.48 204.64C58.3733 205.6 58.16 206.72 57.84 208C57.7333 208.64 57.5733 209.387 57.36 210.24C57.2533 210.987 57.1467 211.573 57.04 212C56.9333 212.32 56.88 212.587 56.88 212.8C56.1333 223.787 56.3467 235.947 57.52 249.28C57.52 249.6 57.6267 251.04 57.84 253.6C58.0533 256.053 58.16 257.547 58.16 258.08C58.2667 258.507 58.4267 259.893 58.64 262.24C58.8533 264.48 59.0133 265.92 59.12 266.56C59.2267 267.307 59.3867 268.693 59.6 270.72C59.8133 272.747 59.9733 274.24 60.08 275.2C60.2933 276.16 60.5067 277.493 60.72 279.2C61.04 281.013 61.3067 282.453 61.52 283.52C61.84 284.693 62.16 285.973 62.48 287.36C62.9067 288.853 63.28 290.24 63.6 291.52C63.92 292.48 64.1333 293.28 64.24 293.92C64.3467 294.56 64.4533 295.147 64.56 295.68C64.56 296.747 64.2933 297.707 63.76 298.56C62.6933 300.267 60.9333 300.853 58.48 300.32C57.84 300.107 57.36 299.947 57.04 299.84C56.9333 299.84 56.8267 299.84 56.72 299.84C55.5467 299.84 53.7333 299.787 51.28 299.68C50.8533 299.893 50.48 300 50.16 300ZM32.4 222.4C32.4 231.467 32.3467 237.707 32.24 241.12C32.24 241.973 31.8667 242.72 31.12 243.36C30.48 244 29.68 244.32 28.72 244.32C27.8667 244.32 27.12 244 26.48 243.36C25.84 242.613 25.52 241.76 25.52 240.8C25.6267 237.6 25.68 231.467 25.68 222.4C25.68 221.44 26 220.64 26.64 220C27.28 219.36 28.08 219.04 29.04 219.04C30 219.04 30.8 219.36 31.44 220C32.08 220.64 32.4 221.44 32.4 222.4ZM7.28 231.68C7.28 228.373 7.28 225.173 7.28 222.08C7.28 222.613 7.28 223.093 7.28 223.52C7.17333 226.08 7.17333 228.8 7.28 231.68ZM51.6 204.96C50.7467 204.853 49.6267 204.8 48.24 204.8C44.8267 204.8 40.4 204.96 34.96 205.28C25.1467 205.813 18.16 206.453 14 207.2C14 209.44 14 212.16 14 215.36C14 224.107 13.9467 234.4 13.84 246.24C13.84 249.653 13.84 253.013 13.84 256.32C24.2933 256.32 31.8667 257.333 36.56 259.36C37.4133 259.68 38 260.267 38.32 261.12C38.7467 261.973 38.7467 262.827 38.32 263.68C38 264.533 37.4133 265.12 36.56 265.44C35.7067 265.867 34.8533 265.867 34 265.44C30.16 263.84 23.44 263.04 13.84 263.04C13.84 268.373 13.84 273.013 13.84 276.96C13.84 281.333 13.8933 284.747 14 287.2C14 287.947 14 288.587 14 289.12C18.6933 289.12 25.7333 289.28 35.12 289.6C44.6133 289.92 51.6533 290.08 56.24 290.08C54.2133 282.293 52.4 268.907 50.8 249.92C49.6267 236.267 49.4133 223.787 50.16 212.48C50.16 212.16 50.5333 210.24 51.28 206.72C51.4933 205.973 51.6 205.387 51.6 204.96Z" fill="#0000FF"/>
<path d="M115.24 269.44C112.68 270.613 109.267 271.147 105 271.04C104.04 270.933 102.44 270.827 100.2 270.72C98.28 270.613 96.8933 270.56 96.04 270.56C95.8267 270.56 95.24 270.613 94.28 270.72C92.4667 270.933 91.4 271.04 91.08 271.04C89.6933 271.147 88.6267 271.2 87.88 271.2C87.24 271.2 86.76 271.2 86.44 271.2C85.3733 271.093 84.52 270.773 83.88 270.24C83.4533 269.813 83.1333 269.333 82.92 268.8C82.8133 268.587 82.7067 268.373 82.6 268.16C82.6 267.947 82.6 267.627 82.6 267.2C82.6 266.773 82.5467 266.133 82.44 265.28C82.44 264.747 82.44 264.213 82.44 263.68C81.6933 263.147 81.2133 262.453 81 261.6C80.04 257.013 80.0933 247.627 81.16 233.44C81.9067 223.2 82.8667 213.707 84.04 204.96C84.5733 201.12 84.52 195.413 83.88 187.84C83.24 179.52 83.08 173.44 83.4 169.6C83.5067 168.64 83.88 167.893 84.52 167.36C85.2667 166.72 86.12 166.453 87.08 166.56C87.2933 166.56 87.5067 166.613 87.72 166.72C87.8267 165.547 87.88 164.48 87.88 163.52C88.2 160.213 88.9467 157.76 90.12 156.16C90.76 155.413 91.5067 154.987 92.36 154.88C93.32 154.773 94.1733 154.987 94.92 155.52C95.56 156.16 95.9333 156.907 96.04 157.76C96.2533 158.613 96.1467 159.36 95.72 160C98.8133 159.893 101.8 159.84 104.68 159.84C107.667 159.733 110.173 159.787 112.2 160C114.867 160.107 116.733 160.427 117.8 160.96C118.973 161.387 119.773 162.347 120.2 163.84C120.413 164.48 120.627 165.333 120.84 166.4C121.053 168 121.213 170.293 121.32 173.28C121.533 178.187 121.64 184.96 121.64 193.6C121.533 199.253 121.373 206.24 121.16 214.56C121.053 222.773 121 227.307 121 228.16C121 228.587 121 229.92 121 232.16C121.107 234.293 121.16 236.8 121.16 239.68C121.16 242.56 121.16 245.227 121.16 247.68C121.053 252.587 120.947 256.48 120.84 259.36C120.627 261.067 120.467 262.453 120.36 263.52C120.253 264.267 120.093 264.853 119.88 265.28C119.453 266.347 118.813 267.147 117.96 267.68C117.533 267.787 117.107 267.893 116.68 268C116.36 268.64 115.88 269.12 115.24 269.44ZM87.08 264.48H86.92C87.0267 264.48 87.08 264.48 87.08 264.48ZM114.12 166.88C113.48 166.773 112.68 166.72 111.72 166.72C109.907 166.507 107.56 166.453 104.68 166.56C101.16 166.56 97.7467 166.667 94.44 166.88C94.44 168.373 94.4933 170.08 94.6 172C94.7067 173.92 94.9733 176.747 95.4 180.48C95.72 183.893 95.88 186.187 95.88 187.36C95.88 187.893 95.5067 201.173 94.76 227.2C94.44 237.44 94.2267 245.333 94.12 250.88C94.12 254.293 94.1733 257.013 94.28 259.04C94.28 259.68 94.3333 260.213 94.44 260.64C94.44 260.64 94.4933 260.64 94.6 260.64C95.88 260.747 97.7467 260.8 100.2 260.8C101.373 260.8 103.4 260.8 106.28 260.8C108.52 260.8 109.96 260.8 110.6 260.8C110.92 260.8 111.453 260.907 112.2 261.12C113.053 261.227 113.587 261.28 113.8 261.28C113.907 260.64 114.013 259.84 114.12 258.88C114.227 256.107 114.333 252.32 114.44 247.52C114.44 245.067 114.44 242.4 114.44 239.52C114.44 236.64 114.387 234.133 114.28 232C114.28 229.867 114.28 228.587 114.28 228.16C114.28 227.307 114.333 222.773 114.44 214.56C114.653 206.24 114.813 199.2 114.92 193.44C114.92 185.013 114.813 178.4 114.6 173.6C114.493 170.827 114.333 168.747 114.12 167.36C114.12 167.147 114.12 166.987 114.12 166.88Z" fill="#0000FF"/>
<path d="M189.04 277C182.107 278.173 173.147 278.28 162.16 277.32C147.653 276.147 139.067 275.56 136.4 275.56C136.4 275.56 136.347 275.56 136.24 275.56C136.027 275.667 135.653 275.773 135.12 275.88C133.093 276.307 131.44 275.933 130.16 274.76C128.987 273.587 128.56 271.987 128.88 269.96C128.987 269.32 129.093 268.84 129.2 268.52C129.2 268.413 129.2 268.307 129.2 268.2C129.2 261.053 129.04 250.387 128.72 236.2C128.4 222.013 128.24 211.4 128.24 204.36C128.24 203.4 128.56 202.6 129.2 201.96C129.84 201.32 130.64 201 131.6 201C131.92 201 132.24 201.053 132.56 201.16C132.773 199.24 132.987 197.32 133.2 195.4C133.307 194.547 133.733 193.853 134.48 193.32C135.227 192.68 136.08 192.413 137.04 192.52C137.68 192.627 138.267 192.947 138.8 193.48C140.827 192.947 144.827 192.573 150.8 192.36C156.56 192.147 162.64 192.147 169.04 192.36C176.187 192.573 182 193 186.48 193.64C189.147 194.067 191.28 194.493 192.88 194.92C193.84 195.24 194.64 195.613 195.28 196.04C196.347 196.68 197.093 197.48 197.52 198.44C197.947 199.293 198.16 200.573 198.16 202.28C198.267 203.667 198.267 205.427 198.16 207.56C198.053 210.973 197.787 215.507 197.36 221.16C197.253 223.933 197.04 227.027 196.72 230.44C196.4 233.853 196.133 236.733 195.92 239.08C195.707 241.32 195.6 242.813 195.6 243.56C195.6 243.56 195.6 243.933 195.6 244.68C195.6 244.893 195.6 245.16 195.6 245.48C195.6 245.693 195.6 246.013 195.6 246.44C195.6 246.867 195.6 247.24 195.6 247.56C195.707 250.973 195.76 253.8 195.76 256.04C195.76 259.773 195.707 262.707 195.6 264.84C195.6 266.12 195.547 267.133 195.44 267.88C195.44 268.413 195.44 268.84 195.44 269.16C195.227 269.907 194.907 270.547 194.48 271.08C194.16 271.507 193.733 271.88 193.2 272.2C192.987 272.2 192.773 272.2 192.56 272.2C192.347 272.307 192.24 272.36 192.24 272.36H191.92H191.76C191.653 272.36 191.6 272.36 191.6 272.36C191.6 272.36 191.547 272.36 191.44 272.36C191.547 272.573 191.653 272.787 191.76 273C191.867 273.96 191.653 274.813 191.12 275.56C190.587 276.307 189.893 276.787 189.04 277ZM154.64 241C156.56 239.933 159.333 239.293 162.96 239.08C166.587 238.867 168.827 238.653 169.68 238.44C170.64 238.12 171.493 238.227 172.24 238.76C173.093 239.187 173.627 239.88 173.84 240.84C174.16 241.693 174.053 242.547 173.52 243.4C173.093 244.147 172.453 244.627 171.6 244.84C170.107 245.267 167.387 245.587 163.44 245.8C160.773 245.907 158.907 246.227 157.84 246.76C156.987 247.293 156.133 247.453 155.28 247.24C154.427 246.92 153.733 246.333 153.2 245.48C152.773 244.627 152.667 243.773 152.88 242.92C153.2 242.067 153.787 241.427 154.64 241ZM191.44 201.64C191.227 201.533 191.013 201.427 190.8 201.32C189.627 201 187.92 200.68 185.68 200.36C181.307 199.72 175.707 199.293 168.88 199.08C162.587 198.867 156.613 198.867 150.96 199.08C145.52 199.187 142.053 199.453 140.56 199.88C140.133 199.987 139.76 200.04 139.44 200.04C139.013 204.413 138.747 209.053 138.64 213.96C140.133 214.067 142.267 214.28 145.04 214.6C147.92 214.92 149.68 215.133 150.32 215.24C155.227 215.773 159.333 216.04 162.64 216.04C163.6 216.04 164.4 216.36 165.04 217C165.68 217.64 166 218.44 166 219.4C166 220.36 165.68 221.16 165.04 221.8C164.4 222.44 163.6 222.76 162.64 222.76C159.12 222.76 154.8 222.493 149.68 221.96C148.827 221.853 147.067 221.64 144.4 221.32C141.84 221 139.867 220.787 138.48 220.68C138.48 229.533 139.227 243.773 140.72 263.4C140.72 263.72 140.72 264.04 140.72 264.36C140.933 264.36 141.2 264.36 141.52 264.36C143.653 264.467 146.587 264.467 150.32 264.36C152.133 264.36 154.16 264.36 156.4 264.36C158.747 264.253 160.72 264.2 162.32 264.2C163.92 264.093 164.933 264.04 165.36 264.04C168.027 264.04 173.307 264.307 181.2 264.84L188.88 265.48C188.88 265.16 188.88 264.893 188.88 264.68C188.987 262.547 189.04 259.72 189.04 256.2C189.04 253.853 188.987 250.973 188.88 247.56C188.88 247.24 188.88 246.76 188.88 246.12C188.88 245.48 188.88 245 188.88 244.68C188.88 243.827 188.88 243.347 188.88 243.24C188.88 242.493 188.987 240.947 189.2 238.6C189.413 236.253 189.68 233.373 190 229.96C190.32 226.547 190.587 223.453 190.8 220.68C191.12 215.133 191.333 210.653 191.44 207.24C191.547 205.32 191.547 203.773 191.44 202.6C191.44 202.173 191.44 201.853 191.44 201.64Z" fill="#0000FF"/>
<path d="M271.68 276C258.24 275.04 236.32 274.56 205.92 274.56C204.96 274.56 204.16 274.24 203.52 273.6C202.88 272.96 202.56 272.16 202.56 271.2C202.56 270.027 203.04 269.12 204 268.48C203.787 267.947 203.68 267.413 203.68 266.88C203.68 261.227 203.36 251.147 202.72 236.64C202.08 223.733 201.867 213.44 202.08 205.76C202.08 205.12 202.027 201.547 201.92 195.04C201.813 188.427 201.973 184.587 202.4 183.52C202.507 182.56 202.933 181.813 203.68 181.28C204.427 180.747 205.28 180.533 206.24 180.64C207.413 180.853 208.267 181.493 208.8 182.56C209.013 180.533 209.227 179.147 209.44 178.4C209.653 177.44 210.187 176.747 211.04 176.32C211.787 175.893 212.587 175.787 213.44 176C213.547 176 213.653 176 213.76 176C214.293 174.827 215.253 174.24 216.64 174.24C217.28 174.24 219.627 174.24 223.68 174.24C227.733 174.133 231.68 174.08 235.52 174.08C239.36 173.973 244.053 173.92 249.6 173.92C257.813 174.027 264.373 174.293 269.28 174.72C272.267 175.04 274.667 175.413 276.48 175.84C277.547 176.053 278.453 176.32 279.2 176.64C280.373 177.067 281.227 177.707 281.76 178.56C282.4 179.413 282.667 180.427 282.56 181.6C282.56 181.813 282.507 182.08 282.4 182.4C282.4 182.613 282.4 182.72 282.4 182.72C282.187 184.427 281.813 186.24 281.28 188.16C280.853 190.08 280.267 192.267 279.52 194.72C278.88 197.067 278.4 198.667 278.08 199.52C277.867 200.373 277.653 201.227 277.44 202.08C277.333 202.933 277.227 203.893 277.12 204.96C277.12 206.027 277.067 206.987 276.96 207.84C276.853 208.587 276.8 209.6 276.8 210.88C276.907 212.16 276.907 213.12 276.8 213.76C276.8 214.4 276.853 215.467 276.96 216.96C277.067 218.347 277.12 219.307 277.12 219.84C277.12 220.267 277.173 221.28 277.28 222.88C277.387 224.48 277.44 225.44 277.44 225.76C277.44 226.293 277.547 227.947 277.76 230.72C277.973 233.493 278.133 236.587 278.24 240C278.453 243.307 278.613 246.4 278.72 249.28C279.04 254.933 279.147 259.36 279.04 262.56C279.04 264.587 278.987 266.133 278.88 267.2C278.773 268.053 278.613 268.693 278.4 269.12C277.973 270.507 277.173 271.413 276 271.84C275.787 271.947 275.52 272 275.2 272C275.2 272.32 275.2 272.587 275.2 272.8C275.093 273.76 274.667 274.56 273.92 275.2C273.28 275.84 272.533 276.107 271.68 276ZM275.68 182.56C275.467 182.453 275.253 182.4 275.04 182.4C273.547 182.08 271.467 181.76 268.8 181.44C264 181.013 257.547 180.747 249.44 180.64C244 180.64 239.307 180.693 235.36 180.8C231.52 180.8 227.573 180.853 223.52 180.96C219.573 180.96 217.28 180.96 216.64 180.96C216.32 180.96 216 180.907 215.68 180.8C215.36 183.253 215.093 188.213 214.88 195.68C214.56 204.32 214.347 213.973 214.24 224.64C214.24 228.267 214.24 231.68 214.24 234.88C217.12 234.667 220.747 234.187 225.12 233.44C233.013 231.947 237.28 231.147 237.92 231.04C238.773 230.933 239.573 231.147 240.32 231.68C241.067 232.213 241.493 232.96 241.6 233.92C241.813 234.773 241.653 235.573 241.12 236.32C240.587 237.067 239.84 237.547 238.88 237.76C238.347 237.867 234.187 238.613 226.4 240C221.6 240.853 217.6 241.44 214.4 241.76C214.4 245.92 214.453 249.6 214.56 252.8C214.773 256.747 214.987 259.893 215.2 262.24C215.2 262.987 215.253 263.573 215.36 264C219.84 264.533 230.08 265.067 246.08 265.6C253.547 265.813 259.733 265.92 264.64 265.92C267.413 265.813 269.6 265.76 271.2 265.76C271.52 265.653 271.84 265.6 272.16 265.6C272.267 264.747 272.32 263.733 272.32 262.56C272.427 259.467 272.32 255.147 272 249.6C271.893 246.72 271.733 243.627 271.52 240.32C271.413 236.907 271.253 233.813 271.04 231.04C270.827 228.267 270.72 226.613 270.72 226.08C270.187 216.693 270.08 210.133 270.4 206.4C267.52 206.187 258.4 206.08 243.04 206.08C242.08 206.08 241.28 205.76 240.64 205.12C240 204.48 239.68 203.68 239.68 202.72C239.68 201.76 240 200.96 240.64 200.32C241.28 199.68 242.08 199.36 243.04 199.36C258.613 199.36 268 199.467 271.2 199.68C271.307 199.04 271.467 198.453 271.68 197.92C272 196.64 272.427 194.933 272.96 192.8C273.6 190.667 274.133 188.8 274.56 187.2C274.987 185.493 275.36 183.947 275.68 182.56ZM214.4 264V263.84V264Z" fill="#0000FF"/>
<path d="M358.68 276C345.24 275.04 323.32 274.56 292.92 274.56C291.96 274.56 291.16 274.24 290.52 273.6C289.88 272.96 289.56 272.16 289.56 271.2C289.56 270.027 290.04 269.12 291 268.48C290.787 267.947 290.68 267.413 290.68 266.88C290.68 261.227 290.36 251.147 289.72 236.64C289.08 223.733 288.867 213.44 289.08 205.76C289.08 205.12 289.027 201.547 288.92 195.04C288.813 188.427 288.973 184.587 289.4 183.52C289.507 182.56 289.933 181.813 290.68 181.28C291.427 180.747 292.28 180.533 293.24 180.64C294.413 180.853 295.267 181.493 295.8 182.56C296.013 180.533 296.227 179.147 296.44 178.4C296.653 177.44 297.187 176.747 298.04 176.32C298.787 175.893 299.587 175.787 300.44 176C300.547 176 300.653 176 300.76 176C301.293 174.827 302.253 174.24 303.64 174.24C304.28 174.24 306.627 174.24 310.68 174.24C314.733 174.133 318.68 174.08 322.52 174.08C326.36 173.973 331.053 173.92 336.6 173.92C344.813 174.027 351.373 174.293 356.28 174.72C359.267 175.04 361.667 175.413 363.48 175.84C364.547 176.053 365.453 176.32 366.2 176.64C367.373 177.067 368.227 177.707 368.76 178.56C369.4 179.413 369.667 180.427 369.56 181.6C369.56 181.813 369.507 182.08 369.4 182.4C369.4 182.613 369.4 182.72 369.4 182.72C369.187 184.427 368.813 186.24 368.28 188.16C367.853 190.08 367.267 192.267 366.52 194.72C365.88 197.067 365.4 198.667 365.08 199.52C364.867 200.373 364.653 201.227 364.44 202.08C364.333 202.933 364.227 203.893 364.12 204.96C364.12 206.027 364.067 206.987 363.96 207.84C363.853 208.587 363.8 209.6 363.8 210.88C363.907 212.16 363.907 213.12 363.8 213.76C363.8 214.4 363.853 215.467 363.96 216.96C364.067 218.347 364.12 219.307 364.12 219.84C364.12 220.267 364.173 221.28 364.28 222.88C364.387 224.48 364.44 225.44 364.44 225.76C364.44 226.293 364.547 227.947 364.76 230.72C364.973 233.493 365.133 236.587 365.24 240C365.453 243.307 365.613 246.4 365.72 249.28C366.04 254.933 366.147 259.36 366.04 262.56C366.04 264.587 365.987 266.133 365.88 267.2C365.773 268.053 365.613 268.693 365.4 269.12C364.973 270.507 364.173 271.413 363 271.84C362.787 271.947 362.52 272 362.2 272C362.2 272.32 362.2 272.587 362.2 272.8C362.093 273.76 361.667 274.56 360.92 275.2C360.28 275.84 359.533 276.107 358.68 276ZM362.68 182.56C362.467 182.453 362.253 182.4 362.04 182.4C360.547 182.08 358.467 181.76 355.8 181.44C351 181.013 344.547 180.747 336.44 180.64C331 180.64 326.307 180.693 322.36 180.8C318.52 180.8 314.573 180.853 310.52 180.96C306.573 180.96 304.28 180.96 303.64 180.96C303.32 180.96 303 180.907 302.68 180.8C302.36 183.253 302.093 188.213 301.88 195.68C301.56 204.32 301.347 213.973 301.24 224.64C301.24 228.267 301.24 231.68 301.24 234.88C304.12 234.667 307.747 234.187 312.12 233.44C320.013 231.947 324.28 231.147 324.92 231.04C325.773 230.933 326.573 231.147 327.32 231.68C328.067 232.213 328.493 232.96 328.6 233.92C328.813 234.773 328.653 235.573 328.12 236.32C327.587 237.067 326.84 237.547 325.88 237.76C325.347 237.867 321.187 238.613 313.4 240C308.6 240.853 304.6 241.44 301.4 241.76C301.4 245.92 301.453 249.6 301.56 252.8C301.773 256.747 301.987 259.893 302.2 262.24C302.2 262.987 302.253 263.573 302.36 264C306.84 264.533 317.08 265.067 333.08 265.6C340.547 265.813 346.733 265.92 351.64 265.92C354.413 265.813 356.6 265.76 358.2 265.76C358.52 265.653 358.84 265.6 359.16 265.6C359.267 264.747 359.32 263.733 359.32 262.56C359.427 259.467 359.32 255.147 359 249.6C358.893 246.72 358.733 243.627 358.52 240.32C358.413 236.907 358.253 233.813 358.04 231.04C357.827 228.267 357.72 226.613 357.72 226.08C357.187 216.693 357.08 210.133 357.4 206.4C354.52 206.187 345.4 206.08 330.04 206.08C329.08 206.08 328.28 205.76 327.64 205.12C327 204.48 326.68 203.68 326.68 202.72C326.68 201.76 327 200.96 327.64 200.32C328.28 199.68 329.08 199.36 330.04 199.36C345.613 199.36 355 199.467 358.2 199.68C358.307 199.04 358.467 198.453 358.68 197.92C359 196.64 359.427 194.933 359.96 192.8C360.6 190.667 361.133 188.8 361.56 187.2C361.987 185.493 362.36 183.947 362.68 182.56ZM301.4 264V263.84V264Z" fill="#0000FF"/>
<path d="M73.52 126.68C70.4267 125.507 65.9467 125.08 60.08 125.4C51.3333 125.933 46.2133 126.147 44.72 126.04C30.8533 125.08 18.8533 124.6 8.72 124.6C7.76 124.6 6.96 124.28 6.32 123.64C5.68 123 5.36 122.2 5.36 121.24C5.36 120.493 5.57333 119.853 6 119.32C5.57333 118.68 5.36 117.987 5.36 117.24C5.36 115.427 5.14667 110.147 4.72 101.4C4.18667 92.6533 4.13333 85.88 4.56 81.08C3.92 77.3467 3.49333 74.52 3.28 72.6C2.96 70.5733 2.8 67.8533 2.8 64.44C2.69333 61.0267 3.01333 58.0933 3.76 55.64C3.97333 54.7867 4.50667 54.1467 5.36 53.72C6.10667 53.1867 6.96 53.08 7.92 53.4C8.13333 52.12 8.88 51.2133 10.16 50.68C11.12 50.36 12.9333 50.1467 15.6 50.04C17.7333 49.9333 20.4533 49.9333 23.76 50.04C30.0533 50.2533 37.3067 50.68 45.52 51.32C53.84 52.0667 60.9333 52.8667 66.8 53.72C69.8933 54.1467 72.4 54.6267 74.32 55.16C75.3867 55.3733 76.2933 55.5867 77.04 55.8C78.1067 56.2267 78.9067 56.7067 79.44 57.24C81.1467 59.0533 82.16 61.6667 82.48 65.08C82.6933 67.2133 82.96 76.5467 83.28 93.08C83.4933 100.12 83.6533 105.933 83.76 110.52C83.76 112.973 83.76 114.893 83.76 116.28C83.76 117.027 83.76 117.613 83.76 118.04C83.76 118.253 83.76 118.467 83.76 118.68C83.76 119 83.7067 119.373 83.6 119.8C82.96 121.507 82 122.733 80.72 123.48C80.2933 123.693 79.8133 123.8 79.28 123.8C79.0667 123.907 78.7467 123.96 78.32 123.96C78.2133 123.96 78.1067 123.96 78 123.96C77.8933 124.173 77.84 124.387 77.84 124.6C77.52 125.453 76.9333 126.093 76.08 126.52C75.2267 126.947 74.3733 127 73.52 126.68ZM61.52 84.12C60.7733 86.68 60.2933 89.5067 60.08 92.6C59.9733 95.6933 60.0267 99.5333 60.24 104.12C60.56 108.6 60.72 111.8 60.72 113.72C60.72 115.107 60.1333 116.12 58.96 116.76C63.0133 116.867 66.5333 116.973 69.52 117.08C72.2933 117.187 74.48 117.24 76.08 117.24C76.5067 117.24 76.8267 117.24 77.04 117.24C77.04 117.133 77.04 116.973 77.04 116.76C77.04 116.547 77.04 116.387 77.04 116.28C77.04 115 77.04 113.08 77.04 110.52C76.9333 105.933 76.7733 100.173 76.56 93.24C76.24 76.8133 75.9733 67.64 75.76 65.72C75.6533 64.2267 75.3333 63.0533 74.8 62.2H74.64C74.2133 61.9867 73.6267 61.8267 72.88 61.72C71.0667 61.2933 68.72 60.8667 65.84 60.44C60.08 59.5867 53.0933 58.7867 44.88 58.04C36.7733 57.4 29.6267 56.9733 23.44 56.76C20.3467 56.6533 17.7867 56.6533 15.76 56.76C15.5467 56.76 15.3333 56.76 15.12 56.76C15.12 70.84 15.1733 81.4533 15.28 88.6C15.3867 96.7067 15.5467 103.107 15.76 107.8C15.9733 110.467 16.1867 112.547 16.4 114.04V114.36C16.5067 114.36 16.6133 114.36 16.72 114.36C18.7467 114.467 22.8 114.733 28.88 115.16C28.7733 114.52 28.6667 113.827 28.56 113.08C28.24 110.733 28.0267 107.693 27.92 103.96C27.7067 96.4933 27.8667 91.1067 28.4 87.8C28.6133 86.9467 29.0933 86.2533 29.84 85.72C30.5867 85.1867 31.3867 85.0267 32.24 85.24C33.2 85.3467 33.9467 85.7733 34.48 86.52C35.0133 87.2667 35.2267 88.12 35.12 89.08C34.5867 91.8533 34.4267 96.76 34.64 103.8C34.7467 107.213 34.96 109.987 35.28 112.12C35.3867 113.187 35.5467 113.987 35.76 114.52C35.76 114.627 35.76 114.733 35.76 114.84C36.08 115.053 36.2933 115.267 36.4 115.48L49.52 116.28L55.6 116.6C54.5333 115.96 54 115 54 113.72C54 112.547 53.84 109.56 53.52 104.76C53.3067 99.8533 53.3067 95.5867 53.52 91.96C53.7333 88.3333 54.2667 85.08 55.12 82.2C55.44 81.24 55.9733 80.5467 56.72 80.12C57.5733 79.6933 58.4267 79.64 59.28 79.96C60.24 80.28 60.9333 80.8667 61.36 81.72C61.7867 82.4667 61.84 83.2667 61.52 84.12ZM77.04 117.88H77.2H77.04ZM15.28 114.36H15.12H15.28Z" fill="#0000FF"/>
<path d="M101.76 115.16C101.76 112.707 101.493 107.48 100.96 99.48C100.533 92.76 100.48 87.3733 100.8 83.32C101.12 79.5867 101.707 74.9467 102.56 69.4C103.84 61.2933 104.533 56.8667 104.64 56.12C104.747 55.3733 104.853 53.56 104.96 50.68C105.067 48.2267 105.387 46.1467 105.92 44.44C106.133 43.48 106.613 42.7867 107.36 42.36C108.213 41.8267 109.067 41.72 109.92 42.04C110.027 42.04 110.133 42.04 110.24 42.04C110.453 41.08 110.72 40.12 111.04 39.16C111.253 38.3067 111.787 37.6667 112.64 37.24C113.493 36.7067 114.347 36.6 115.2 36.92C115.52 37.0267 115.787 37.1333 116 37.24C116.427 35.64 117.493 34.84 119.2 34.84C119.627 34.84 120.907 34.7867 123.04 34.68C125.173 34.5733 126.933 34.52 128.32 34.52C130.667 34.4133 132.533 34.4133 133.92 34.52C134.773 34.52 135.52 34.5733 136.16 34.68C136.587 34.7867 136.96 34.8933 137.28 35C138.027 35.2133 138.613 35.5867 139.04 36.12L139.84 38.2C139.947 38.52 140 38.84 140 39.16C140 39.6933 139.947 40.44 139.84 41.4C139.84 42.7867 139.733 44.6533 139.52 47C139.2 49.88 138.88 52.8667 138.56 55.96C138.347 57.9867 137.707 69.1333 136.64 89.4C136.107 98.5733 135.733 105.24 135.52 109.4C135.307 112.28 135.147 114.52 135.04 116.12C134.933 116.973 134.88 117.667 134.88 118.2C134.773 118.52 134.72 118.787 134.72 119C134.613 119.533 134.453 119.96 134.24 120.28C133.92 120.92 133.493 121.4 132.96 121.72C132.747 121.827 132.533 121.88 132.32 121.88C132.213 121.987 132.053 122.04 131.84 122.04C131.84 122.787 131.52 123.48 130.88 124.12C130.347 124.76 129.707 125.133 128.96 125.24C125.333 125.667 120.693 125.56 115.04 124.92C108.533 124.173 104.267 123.8 102.24 123.8C101.28 123.8 100.48 123.48 99.84 122.84C99.2 122.2 98.88 121.4 98.88 120.44C98.88 119.48 99.2 118.68 99.84 118.04C100.48 117.4 101.28 117.08 102.24 117.08C102.347 117.08 102.4 117.08 102.4 117.08C101.973 116.547 101.76 115.907 101.76 115.16ZM117.44 41.08C115.947 46.0933 115.2 53.9867 115.2 64.76C118.72 64.44 124.053 64.8133 131.2 65.88C131.52 60.2267 131.733 56.7067 131.84 55.32C132.16 52.2267 132.48 49.24 132.8 46.36C133.013 44.2267 133.12 42.52 133.12 41.24C132.053 41.24 130.507 41.24 128.48 41.24C127.093 41.24 125.28 41.2933 123.04 41.4C120.907 41.5067 119.627 41.56 119.2 41.56C118.56 41.56 117.973 41.4 117.44 41.08ZM130.72 72.6C123.36 71.5333 118.187 71.16 115.2 71.48C115.093 72.76 115.04 73.9867 115.04 75.16C114.72 83.6933 114.56 90.0933 114.56 94.36C114.56 94.7867 114.507 95.5867 114.4 96.76C114.4 97.9333 114.347 99.48 114.24 101.4C114.133 103.213 114.027 104.813 113.92 106.2C113.813 109.08 113.76 111.32 113.76 112.92C113.76 113.667 113.76 114.2 113.76 114.52C114.187 114.627 114.613 114.68 115.04 114.68C116.747 114.893 118.933 115.107 121.6 115.32C123.84 115.427 126.08 115.48 128.32 115.48C128.533 113.88 128.693 111.747 128.8 109.08C129.013 104.92 129.387 98.2533 129.92 89.08L130.72 72.6Z" fill="#0000FF"/>
<path d="M190.56 75.2C190.347 77.8667 190.08 84.64 189.76 95.52C189.653 104.267 189.067 111.307 188 116.64C187.893 116.853 187.787 117.067 187.68 117.28C190.773 117.6 193.547 117.813 196 117.92C201.44 118.347 205.76 118.507 208.96 118.4C210.773 118.4 212.213 118.293 213.28 118.08C213.387 118.08 213.44 118.027 213.44 117.92C213.547 116.96 213.6 115.467 213.6 113.44C213.707 110.133 213.813 105.493 213.92 99.52C213.92 96.64 213.92 93.3867 213.92 89.76C214.027 86.1333 214.08 83.2 214.08 80.96C214.08 78.72 214.08 77.3333 214.08 76.8C214.08 76.48 214.187 74.56 214.4 71.04C214.72 67.52 214.88 64.5333 214.88 62.08C214.987 58.6667 214.987 55.9467 214.88 53.92C214.773 53.3867 214.667 52.8533 214.56 52.32H214.4C213.547 52.4267 212.213 52.5867 210.4 52.8C205.6 53.44 202.88 53.76 202.24 53.76C202.133 53.76 198.987 53.7067 192.8 53.6C186.72 53.4933 181.6 53.4933 177.44 53.6C171.573 53.6 166.933 53.76 163.52 54.08C161.92 54.1867 160.64 54.3467 159.68 54.56C159.467 56.8 159.253 59.84 159.04 63.68C158.72 70.2933 158.453 77.8133 158.24 86.24C158.027 95.0933 157.92 102.507 157.92 108.48C157.92 111.68 157.973 114.187 158.08 116C158.08 116.213 158.08 116.373 158.08 116.48C159.147 116.48 160.693 116.427 162.72 116.32C163.253 116.32 164.16 116.267 165.44 116.16C166.827 116.053 167.84 116 168.48 116C170.613 115.893 172.053 115.84 172.8 115.84C173.867 115.84 176.693 116.107 181.28 116.64C181.28 116.213 181.28 115.787 181.28 115.36C182.347 110.347 182.933 103.68 183.04 95.36C183.36 84.3733 183.627 77.44 183.84 74.56C183.947 73.6 184.32 72.8533 184.96 72.32C185.707 71.68 186.56 71.4133 187.52 71.52C188.48 71.6267 189.227 72.0533 189.76 72.8C190.4 73.44 190.667 74.24 190.56 75.2ZM214.24 128C207.84 127.68 201.12 127.467 194.08 127.36C187.04 127.36 179.04 127.413 170.08 127.52C161.227 127.733 154.56 127.84 150.08 127.84C149.12 127.84 148.32 127.52 147.68 126.88C147.04 126.24 146.72 125.44 146.72 124.48C146.72 122.88 147.467 121.813 148.96 121.28C148.32 120.533 148.107 119.68 148.32 118.72C148.427 117.76 148.533 116.48 148.64 114.88C148.64 113.28 148.587 111.253 148.48 108.8C148.373 106.347 148.32 104.16 148.32 102.24C148.213 100.32 148.107 97.6 148 94.08C147.787 90.56 147.68 87.84 147.68 85.92C147.36 77.7067 147.253 71.4667 147.36 67.2C147.467 64.2133 147.68 61.8133 148 60C148.427 57.5467 149.12 55.7867 150.08 54.72C150.827 53.9733 151.68 53.6 152.64 53.6C152.213 52.4267 152.427 51.36 153.28 50.4V50.24C153.493 49.28 154.027 48.5867 154.88 48.16C155.627 47.6267 156.427 47.4133 157.28 47.52C157.707 47.6267 158.08 47.7867 158.4 48C159.573 47.7867 161.067 47.5733 162.88 47.36C166.507 47.04 171.36 46.88 177.44 46.88C181.493 46.7733 186.613 46.7733 192.8 46.88C198.987 46.9867 202.133 47.04 202.24 47.04C202.56 47.04 204.96 46.7733 209.44 46.24C211.36 45.92 212.853 45.76 213.92 45.76C214.667 45.6533 215.307 45.6 215.84 45.6C216.8 45.6 217.6 45.76 218.24 46.08C219.413 46.72 220.267 47.8933 220.8 49.6C221.12 50.56 221.333 51.7867 221.44 53.28C221.76 55.6267 221.813 58.6667 221.6 62.4C221.6 64.7467 221.44 67.68 221.12 71.2C220.907 74.72 220.8 76.6933 220.8 77.12C220.8 77.5467 220.8 78.88 220.8 81.12C220.8 83.2533 220.747 86.1333 220.64 89.76C220.64 93.3867 220.64 96.64 220.64 99.52C220.533 105.6 220.427 110.293 220.32 113.6C220.32 115.733 220.267 117.333 220.16 118.4C220.16 119.04 220.16 119.573 220.16 120C220.053 120.213 220 120.427 220 120.64C220 120.853 219.947 121.013 219.84 121.12C219.733 121.547 219.52 121.973 219.2 122.4C218.773 122.827 218.24 123.253 217.6 123.68C217.707 124 217.76 124.373 217.76 124.8C217.76 125.76 217.387 126.507 216.64 127.04C216 127.68 215.2 128 214.24 128Z" fill="#0000FF"/>
<path d="M298.8 131.44C294.107 133.573 286.48 133.893 275.92 132.4C274.107 132.08 270.16 131.387 264.08 130.32C259.6 129.573 256.4 129.147 254.48 129.04C252.56 128.933 249.04 128.933 243.92 129.04C239.12 129.147 235.333 129.04 232.56 128.72C231.707 128.613 231.013 128.187 230.48 127.44C229.84 126.693 229.573 125.84 229.68 124.88C229.893 123.6 230.64 122.693 231.92 122.16C230.64 118.64 230.107 112.4 230.32 103.44C230.427 100.773 230.8 94.3733 231.44 84.24C232.08 74.8533 231.813 60.2933 230.64 40.56C230.64 39.7067 230.96 38.96 231.6 38.32C232.133 37.5733 232.88 37.1467 233.84 37.04C234.373 37.04 234.907 37.1467 235.44 37.36C235.44 37.1467 235.44 36.9867 235.44 36.88C235.547 35.92 235.973 35.1733 236.72 34.64C237.467 34 238.267 33.7333 239.12 33.84C239.44 33.84 239.707 33.8933 239.92 34C240.453 33.5733 241.093 33.36 241.84 33.36C244.827 33.36 248.987 33.68 254.32 34.32C259.973 34.8533 263.973 35.1733 266.32 35.28C268.133 35.3867 273.413 35.3333 282.16 35.12C288.88 35.12 294.32 35.3333 298.48 35.76C301.253 36.08 303.387 37.04 304.88 38.64C305.307 39.1733 305.627 39.9733 305.84 41.04C305.947 41.4667 306.053 42.1067 306.16 42.96C306.16 44.1333 306.213 45.84 306.32 48.08C306.32 51.7067 306.267 56.6667 306.16 62.96C306.053 66.0533 305.947 69.52 305.84 73.36C305.733 77.2 305.627 80.3467 305.52 82.8C305.52 85.2533 305.52 86.8533 305.52 87.6C305.52 88.1333 305.52 89.36 305.52 91.28C305.627 93.2 305.68 95.6533 305.68 98.64C305.787 101.627 305.84 104.347 305.84 106.8C305.947 111.707 306 115.547 306 118.32C305.893 120.027 305.84 121.36 305.84 122.32C305.733 122.853 305.68 123.333 305.68 123.76C305.573 124.08 305.467 124.347 305.36 124.56C305.147 125.307 304.72 125.893 304.08 126.32C303.227 126.96 302.053 127.387 300.56 127.6C300.987 129.413 300.4 130.693 298.8 131.44ZM273.84 42.32C273.307 43.1733 272.88 45.2 272.56 48.4C272.24 51.28 272.133 55.12 272.24 59.92C272.347 62.8 272.507 66.8 272.72 71.92C273.04 77.04 273.2 80.2933 273.2 81.68C273.2 82.64 272.88 83.44 272.24 84.08C271.6 84.72 270.8 85.04 269.84 85.04C268.88 85.04 268.08 84.72 267.44 84.08C266.8 83.44 266.48 82.64 266.48 81.68C266.48 80.2933 266.32 77.0933 266 72.08C265.787 66.96 265.627 62.96 265.52 60.08C265.413 55.0667 265.52 50.96 265.84 47.76C266.053 45.4133 266.373 43.4933 266.8 42C266.587 42 266.32 42 266 42C263.547 41.8933 259.44 41.52 253.68 40.88C248.667 40.3467 244.773 40.08 242 40.08C241.893 42.4267 241.733 46.4267 241.52 52.08C241.2 60.4 240.88 69.8933 240.56 80.56C240.133 91.76 239.867 101.04 239.76 108.4C239.653 112.347 239.6 115.387 239.6 117.52C239.6 117.947 239.6 118.267 239.6 118.48C240.24 118.587 241.147 118.693 242.32 118.8C245.413 119.12 249.52 119.44 254.64 119.76C265.307 120.507 272.293 120.88 275.6 120.88C276.453 120.88 278.533 120.987 281.84 121.2C285.147 121.307 287.707 121.36 289.52 121.36C292.613 121.467 295.12 121.467 297.04 121.36C297.787 121.253 298.48 121.147 299.12 121.04C299.227 120.4 299.28 119.44 299.28 118.16C299.28 115.493 299.227 111.707 299.12 106.8C299.12 104.453 299.067 101.787 298.96 98.8C298.96 95.8133 298.907 93.36 298.8 91.44C298.8 89.4133 298.8 88.1333 298.8 87.6C298.8 86.8533 298.8 85.2533 298.8 82.8C298.907 80.24 299.013 77.04 299.12 73.2C299.227 69.36 299.333 65.8933 299.44 62.8C299.547 56.6133 299.6 51.76 299.6 48.24C299.493 46.1067 299.44 44.5067 299.44 43.44C299.44 43.3333 299.387 43.1733 299.28 42.96C299.493 43.28 299.653 43.3333 299.76 43.12C299.653 43.2267 299.493 43.1733 299.28 42.96C299.28 42.64 299.28 42.3733 299.28 42.16V42.48C299.28 42.6933 299.28 42.8533 299.28 42.96C298.96 42.7467 298.48 42.5867 297.84 42.48C293.893 42.0533 288.667 41.84 282.16 41.84C281.413 41.9467 280.08 42 278.16 42C276.347 42 274.96 42 274 42C274 42.1067 273.947 42.2133 273.84 42.32Z" fill="#0000FF"/>
<path d="M368.04 84.76C366.653 84.6533 364.787 84.6 362.44 84.6C362.547 89.6133 362.547 96.28 362.44 104.6C362.44 109.933 362.387 114.253 362.28 117.56C362.173 119.48 362.067 120.973 361.96 122.04C361.853 122.68 361.8 123.213 361.8 123.64C361.693 123.96 361.64 124.227 361.64 124.44C361.427 124.973 361.107 125.453 360.68 125.88C360.36 126.307 359.933 126.68 359.4 127C359.4 127.213 359.4 127.427 359.4 127.64C359.4 128.6 359.08 129.4 358.44 130.04C357.8 130.68 357 131 356.04 131C353.053 131 348.627 130.893 342.76 130.68C337 130.467 332.627 130.36 329.64 130.36C328.68 130.36 327.88 130.04 327.24 129.4C326.6 128.76 326.28 127.96 326.28 127C326.28 126.787 326.28 126.573 326.28 126.36C326.28 126.147 326.28 125.933 326.28 125.72C326.28 100.973 326.173 86.04 325.96 80.92C322.44 80.0667 319.827 79.0533 318.12 77.88C315.88 76.28 314.547 74.1467 314.12 71.48C313.907 70.3067 313.96 68.0667 314.28 64.76C314.6 61.4533 314.653 58.5733 314.44 56.12C314.333 55.2667 314.6 54.52 315.24 53.88C315.88 53.1333 316.68 52.7067 317.64 52.6C317.853 52.6 318.12 52.6 318.44 52.6C318.333 51.7467 318.547 50.9467 319.08 50.2C319.613 49.4533 320.307 48.9733 321.16 48.76C321.907 48.6533 322.6 48.76 323.24 49.08C325.16 48.8667 326.813 48.5467 328.2 48.12C328.2 47.9067 328.2 47.6933 328.2 47.48C328.2 43.32 328.147 40.12 328.04 37.88C328.04 36.92 328.307 36.12 328.84 35.48C329.48 34.84 330.28 34.4667 331.24 34.36C331.347 31.8 332.413 29.72 334.44 28.12C335.4 27.3733 336.68 26.8933 338.28 26.68C339.24 26.5733 340.413 26.5733 341.8 26.68C342.547 26.68 343.613 26.7333 345 26.84C346.067 26.9467 346.76 27 347.08 27C347.4 27 347.987 26.9467 348.84 26.84C350.227 26.7333 351.24 26.68 351.88 26.68C353.16 26.5733 354.227 26.52 355.08 26.52C356.467 26.6267 357.587 26.9467 358.44 27.48C359.613 28.0133 360.413 29.0267 360.84 30.52C361.16 31.3733 361.32 32.3867 361.32 33.56C361.427 34.84 361.373 36.92 361.16 39.8C360.947 42.7867 360.787 44.7067 360.68 45.56C360.68 46.2 360.733 46.7867 360.84 47.32C361.16 47.5333 361.64 47.7467 362.28 47.96C362.813 48.0667 364.253 48.3333 366.6 48.76C371.72 49.6133 375.08 51.48 376.68 54.36C377.533 56.1733 377.48 58.68 376.52 61.88C376.413 62.52 376.2 63.16 375.88 63.8C375.667 64.44 375.507 64.92 375.4 65.24C375.293 65.56 375.24 65.88 375.24 66.2C375.24 66.4133 375.187 66.9467 375.08 67.8C375.08 68.9733 375.08 69.8267 375.08 70.36C374.973 73.1333 374.333 75.16 373.16 76.44C372.413 77.4 371.4 78.0933 370.12 78.52C371.293 79.2667 371.827 80.3333 371.72 81.72C371.613 82.5733 371.187 83.32 370.44 83.96C369.8 84.6 369 84.8667 368.04 84.76ZM333 123.64C333.213 123.64 333.48 123.64 333.8 123.64C333.48 123.32 333.213 122.947 333 122.52C333 122.84 333 123.213 333 123.64ZM338.44 33.4C338.013 33.8267 337.853 34.6267 337.96 35.8C337.96 36.44 338.12 37.4 338.44 38.68C338.867 40.28 339.133 41.5067 339.24 42.36C339.667 45.9867 338.76 48.92 336.52 51.16C334.387 53.2933 330.813 54.7333 325.8 55.48C326.44 60.0667 326.547 64.0667 326.12 67.48C326.013 67.9067 325.693 68.92 325.16 70.52H325C325 70.6267 325.8 70.7333 327.4 70.84C329.107 71.0533 330.387 71.2667 331.24 71.48C333.267 72.2267 334.653 73.5067 335.4 75.32C336.36 77.4533 337.32 83 338.28 91.96C339.027 98.8933 339.507 104.493 339.72 108.76C339.827 109.933 339.72 111.96 339.4 114.84C339.187 116.867 339.133 118.307 339.24 119.16C340.2 119.373 341.587 119.533 343.4 119.64C344.04 119.64 345.32 119.64 347.24 119.64C348.84 119.64 349.96 119.693 350.6 119.8C351.027 119.907 351.773 120.067 352.84 120.28C353.8 120.493 354.493 120.653 354.92 120.76C355.027 120.76 355.133 120.76 355.24 120.76C355.347 119.907 355.453 118.733 355.56 117.24C355.667 114.04 355.72 109.773 355.72 104.44C355.933 93.0267 355.933 85.8267 355.72 82.84C355.72 82.7333 355.56 82.2533 355.24 81.4C354.813 79.9067 354.76 78.5733 355.08 77.4C355.507 75.16 356.893 73.6133 359.24 72.76C360.413 72.44 361.96 72.28 363.88 72.28C366.013 72.28 367.187 72.2267 367.4 72.12C367.72 72.12 367.933 72.12 368.04 72.12C368.253 71.5867 368.36 70.8933 368.36 70.04C368.36 69.6133 368.36 68.8133 368.36 67.64C368.467 66.68 368.52 65.88 368.52 65.24C368.627 64.92 369.16 63.1067 370.12 59.8L370.6 57.56C370.173 56.6 368.467 55.8533 365.48 55.32C362.92 54.8933 361.32 54.6267 360.68 54.52C358.44 53.88 356.733 52.92 355.56 51.64C354.493 50.36 353.96 48.3333 353.96 45.56C354.067 44.4933 354.227 42.4133 354.44 39.32C354.653 36.76 354.707 34.9467 354.6 33.88C354.6 33.6667 354.6 33.4533 354.6 33.24C353.96 33.24 353.16 33.2933 352.2 33.4C351.773 33.4 350.867 33.4533 349.48 33.56C348.307 33.6667 347.453 33.72 346.92 33.72C346.493 33.72 345.693 33.6667 344.52 33.56C343.133 33.4533 342.12 33.4 341.48 33.4C340.413 33.2933 339.56 33.2933 338.92 33.4C338.707 33.4 338.547 33.4 338.44 33.4Z" fill="#0000FF"/>
<path d="M444.4 125.72C441.2 125.613 437.147 125.72 432.24 126.04C425.52 126.573 421.253 126.893 419.44 127C416.24 127.107 412.027 127.053 406.8 126.84C400.827 126.627 396.773 126.52 394.64 126.52C393.68 126.52 392.827 126.147 392.08 125.4C391.12 125.187 390.267 124.813 389.52 124.28C388.987 123.747 388.613 123.053 388.4 122.2C388.293 121.88 388.187 121.453 388.08 120.92C387.973 120.173 387.92 119.213 387.92 118.04C387.813 116.12 387.76 113.507 387.76 110.2C387.76 108.493 387.813 106.733 387.92 104.92C387.92 103 387.92 101.4 387.92 100.12C387.92 98.84 387.92 98.0933 387.92 97.88C387.92 97.4533 387.973 97.0267 388.08 96.6C387.547 96.0667 387.227 95.3733 387.12 94.52C387.12 94.0933 387.013 92.6533 386.8 90.2C386.587 87.7467 386.427 86.04 386.32 85.08C386.213 84.0133 386.107 82.3067 386 79.96C385.893 77.6133 385.893 75.7467 386 74.36C386 72.8667 386.107 71.2133 386.32 69.4C386.533 67.48 386.8 65.7733 387.12 64.28C386.8 60.5467 386.48 57.1333 386.16 54.04C386.053 53.08 386.32 52.28 386.96 51.64C387.6 50.8933 388.347 50.4667 389.2 50.36C390.053 50.2533 390.853 50.4667 391.6 51C391.6 50.04 391.653 49.2933 391.76 48.76C391.973 47.48 392.72 46.6267 394 46.2C394 45.3467 394.267 44.6 394.8 43.96C395.333 43.32 396.027 42.9467 396.88 42.84C405.52 41.6667 415.12 40.6533 425.68 39.8C432.827 39.2667 438.587 39.0533 442.96 39.16C445.52 39.16 447.653 39.32 449.36 39.64C451.707 40.0667 453.36 40.8667 454.32 42.04C454.747 42.4667 455.067 43.16 455.28 44.12C455.493 44.5467 455.653 45.1333 455.76 45.88C455.973 47.16 456.133 48.8133 456.24 50.84C456.453 54.2533 456.613 58.7333 456.72 64.28C456.827 69.6133 456.88 76.28 456.88 84.28C457.947 84.7067 458.64 85.4533 458.96 86.52C459.173 87.3733 459.067 88.2267 458.64 89.08C458.32 89.8267 457.787 90.36 457.04 90.68C457.147 95.9067 457.2 100.013 457.2 103C457.2 107.267 457.093 110.627 456.88 113.08C456.773 114.68 456.667 115.96 456.56 116.92C456.347 117.56 456.187 118.093 456.08 118.52C455.653 119.48 455.12 120.173 454.48 120.6C454.053 120.92 453.573 121.133 453.04 121.24C452.933 121.24 452.773 121.24 452.56 121.24C452.347 121.347 452.027 121.4 451.6 121.4C450.96 121.4 450.16 121.347 449.2 121.24C448.773 121.24 448.293 121.24 447.76 121.24C447.867 121.667 447.92 122.093 447.92 122.52C447.92 123.48 447.547 124.227 446.8 124.76C446.16 125.4 445.36 125.72 444.4 125.72ZM424.88 58.36H437.52C438.48 58.36 439.28 58.68 439.92 59.32C440.56 59.96 440.88 60.76 440.88 61.72C440.88 62.68 440.56 63.48 439.92 64.12C439.28 64.76 438.48 65.08 437.52 65.08H424.88C423.92 65.08 423.12 64.76 422.48 64.12C421.84 63.48 421.52 62.68 421.52 61.72C421.52 60.76 421.84 59.96 422.48 59.32C423.12 58.68 423.92 58.36 424.88 58.36ZM398.48 50.04C397.733 54.3067 397.413 65.88 397.52 84.76C397.627 89.1333 397.733 93.1867 397.84 96.92C397.84 98.0933 397.84 99.2133 397.84 100.28L398 101.4C398.213 104.92 398.427 108.227 398.64 111.32C398.747 111.96 398.853 112.6 398.96 113.24C398.96 113.773 399.013 114.253 399.12 114.68C399.867 114.787 400.827 114.84 402 114.84C404.56 114.947 408.027 114.947 412.4 114.84C415.493 114.733 419.227 114.573 423.6 114.36C428.08 114.04 430.373 113.88 430.48 113.88C431.12 113.88 432.667 113.933 435.12 114.04C435.973 114.04 437.307 114.093 439.12 114.2C441.04 114.307 442.16 114.36 442.48 114.36C445.573 114.467 447.867 114.52 449.36 114.52C449.68 114.52 449.893 114.573 450 114.68C450.107 114.04 450.213 113.347 450.32 112.6C450.427 110.36 450.48 107.213 450.48 103.16C450.48 100.173 450.427 96.3867 450.32 91.8C447.227 92.12 443.227 92.28 438.32 92.28C435.76 92.28 432.347 92.2267 428.08 92.12C423.92 92.0133 421.147 91.96 419.76 91.96C418.8 91.96 418 91.64 417.36 91C416.72 90.36 416.4 89.56 416.4 88.6C416.4 87.64 416.72 86.84 417.36 86.2C418 85.56 418.8 85.24 419.76 85.24C421.147 85.24 423.92 85.2933 428.08 85.4C432.347 85.5067 435.76 85.56 438.32 85.56C443.227 85.56 447.173 85.4 450.16 85.08C450.16 76.5467 450.107 69.6667 450 64.44C449.893 59 449.733 54.6267 449.52 51.32C449.413 49.5067 449.253 48.0667 449.04 47C449.04 46.7867 449.04 46.6267 449.04 46.52C448.827 46.4133 448.56 46.3067 448.24 46.2C446.853 45.9867 445.04 45.88 442.8 45.88C438.64 45.7733 433.147 45.9867 426.32 46.52C416.507 47.2667 407.227 48.2267 398.48 49.4C398.48 49.6133 398.48 49.8267 398.48 50.04Z" fill="#0000FF"/>
</svg>
