<svg width="148" height="148" viewBox="0 0 148 148" fill="none" xmlns="http://www.w3.org/2000/svg">
<path d="M40.8258 110.128C59.9629 129.265 90.9903 129.265 110.127 110.128C129.264 90.9905 129.264 59.9631 110.127 40.826C90.9903 21.6889 59.9629 21.6889 40.8258 40.826C21.6886 59.9631 21.6886 90.9905 40.8258 110.128Z" fill="white"/>
<path d="M38.8936 112.815C31.5835 105.505 26.6052 96.1913 24.5883 86.0518C22.5714 75.9123 23.6066 65.4025 27.5628 55.8513C31.519 46.3001 38.2187 38.1366 46.8145 32.393C55.4104 26.6494 65.5164 23.5838 75.8545 23.5838C86.1926 23.5838 96.2986 26.6494 104.894 32.393C113.49 38.1366 120.19 46.3001 124.146 55.8513C128.102 65.4025 129.138 75.9123 127.121 86.0518C125.104 96.1913 120.126 105.505 112.815 112.815C103.013 122.618 89.7175 128.125 75.8545 128.125C61.9915 128.125 48.6963 122.618 38.8936 112.815ZM108.195 43.5136C101.799 37.1172 93.6493 32.7612 84.7773 30.9965C75.9052 29.2317 66.7091 30.1374 58.3518 33.5991C49.9945 37.0608 42.8514 42.923 37.8258 50.4444C32.8002 57.9658 30.1178 66.8085 30.1178 75.8544C30.1178 84.9002 32.8002 93.743 37.8258 101.264C42.8514 108.786 49.9945 114.648 58.3518 118.11C66.7091 121.571 75.9052 122.477 84.7773 120.712C93.6493 118.948 101.799 114.592 108.195 108.195C116.773 99.6178 121.591 87.9845 121.591 75.8544C121.591 63.7242 116.773 52.0909 108.195 43.5136Z" fill="#0000FF"/>
<path d="M106.627 75.5801C106.628 74.7214 106.459 73.8711 106.13 73.0777C105.802 72.2843 105.321 71.5635 104.713 70.9563C104.106 70.3492 103.385 69.8676 102.592 69.5393C101.799 69.2109 100.948 69.0421 100.09 69.0426L82.1174 69.0426L82.1174 51.0704C82.1174 49.3366 81.4287 47.6737 80.2027 46.4477C78.9767 45.2217 77.3138 44.5329 75.58 44.5329C73.8462 44.5329 72.1833 45.2217 70.9573 46.4477C69.7313 47.6737 69.0425 49.3365 69.0425 51.0704L69.0425 69.0426L51.0703 69.0426C49.3365 69.0426 47.6737 69.7314 46.4476 70.9574C45.2216 72.1834 44.5329 73.8462 44.5329 75.5801C44.5329 77.3139 45.2216 78.9767 46.4476 80.2027C47.6737 81.4287 49.3365 82.1175 51.0703 82.1175L69.0425 82.1175L69.0425 100.09C69.0425 101.824 69.7313 103.486 70.9573 104.712C72.1833 105.938 73.8462 106.627 75.58 106.627C77.3138 106.627 78.9767 105.938 80.2027 104.712C81.4287 103.486 82.1174 101.824 82.1174 100.09V82.1175L100.09 82.1175C100.948 82.118 101.799 81.9492 102.592 81.6209C103.385 81.2925 104.106 80.811 104.713 80.2038C105.321 79.5966 105.802 78.8758 106.13 78.0824C106.459 77.289 106.628 76.4387 106.627 75.5801Z" fill="#D2D6FF"/>
<path d="M68.5396 106.91C67.6271 105.999 66.9034 104.917 66.4099 103.725C65.9164 102.534 65.6627 101.257 65.6636 99.968L65.6635 85.276L50.9716 85.276C49.6838 85.276 48.4087 85.0224 47.2189 84.5296C46.0292 84.0368 44.9482 83.3144 44.0376 82.4039C42.1986 80.5648 41.1654 78.0706 41.1654 75.4698C41.1654 74.1821 41.4191 72.9069 41.9119 71.7172C42.4047 70.5274 43.127 69.4464 44.0376 68.5358C45.8766 66.6968 48.3708 65.6637 50.9716 65.6637L65.6635 65.6637V50.9717C65.6636 48.371 66.6967 45.8767 68.5357 44.0377C70.3747 42.1987 72.869 41.1655 75.4697 41.1655C78.0705 41.1655 80.5647 42.1987 82.4037 44.0377C84.2428 45.8767 85.2759 48.371 85.2759 50.9717V65.6637L99.9678 65.6637C102.569 65.6637 105.063 66.6968 106.902 68.5358C107.812 69.4464 108.535 70.5274 109.028 71.7172C109.52 72.9069 109.774 74.1821 109.774 75.4698C109.774 76.7576 109.52 78.0328 109.028 79.2225C108.535 80.4122 107.812 81.4933 106.902 82.4039C105.991 83.3144 104.91 84.0368 103.721 84.5296C102.531 85.0224 101.256 85.276 99.9678 85.276L85.2759 85.276L85.2759 99.968C85.2793 101.908 84.7065 103.806 83.6302 105.421C82.5539 107.036 81.0225 108.294 79.2301 109.038C77.4376 109.781 75.4648 109.976 73.5616 109.597C71.6585 109.218 69.9106 108.283 68.5396 106.91ZM71.2423 79.6972C72.5475 81.0024 72.201 80.4711 72.201 99.968C72.1983 100.615 72.3882 101.249 72.7463 101.789C73.1045 102.328 73.6149 102.749 74.2127 102.998C74.8105 103.246 75.4687 103.312 76.1039 103.186C76.739 103.06 77.3223 102.748 77.7798 102.29C79.1196 100.95 78.7616 100.961 78.7385 81.9957C78.741 81.1327 79.085 80.3057 79.6953 79.6954C80.3056 79.0851 81.1326 78.7411 81.9956 78.7386L99.9447 78.7155C100.402 78.7679 100.866 78.7231 101.304 78.584C101.743 78.4448 102.148 78.2144 102.491 77.908C102.835 77.6015 103.11 77.2259 103.298 76.8057C103.487 76.3855 103.584 75.9303 103.584 75.4698C103.584 75.0094 103.487 74.5542 103.298 74.134C103.11 73.7138 102.835 73.3382 102.491 73.0317C102.148 72.7252 101.743 72.4949 101.304 72.3557C100.866 72.2166 100.402 72.1717 99.9447 72.2242L81.9725 72.2242C81.1095 72.2217 80.2825 71.8777 79.6722 71.2674C79.0619 70.6571 78.7179 69.8301 78.7154 68.967V50.9948C78.7098 50.1358 78.366 49.3135 77.7586 48.706C77.1511 48.0985 76.3288 47.7548 75.4697 47.7492C75.0404 47.749 74.6152 47.8333 74.2186 47.9975C73.8219 48.1617 73.4614 48.4025 73.1579 48.7061C72.8543 49.0096 72.6135 49.3701 72.4493 49.7668C72.2851 50.1634 72.2008 50.5886 72.201 51.0179L72.201 68.9901C72.1984 69.8532 71.8544 70.6802 71.2442 71.2905C70.6339 71.9008 69.8069 72.2448 68.9438 72.2473C49.1005 72.2473 49.9436 71.9124 48.65 73.206C48.2137 73.6681 47.9217 74.2474 47.8097 74.873C47.6977 75.4986 47.7706 76.1432 48.0195 76.728C48.2683 77.3128 48.6824 77.8122 49.2108 78.1653C49.7393 78.5183 50.3592 78.7095 50.9947 78.7155C70.7457 78.7386 69.9487 78.4036 71.2423 79.6972Z" fill="#0000FF"/>
</svg>
